<mxfile host="Electron" agent="Mozilla/5.0 (Windows NT 10.0; Win64; x64) AppleWebKit/537.36 (KHTML, like Gecko) draw.io/26.0.15 Chrome/132.0.6834.196 Electron/34.2.0 Safari/537.36" version="26.0.15">
  <diagram name="Page-1" id="pHeBoxWlhvEe4uK6GfoV">
    <mxGraphModel dx="2045" dy="703" grid="1" gridSize="10" guides="1" tooltips="1" connect="1" arrows="1" fold="1" page="1" pageScale="1" pageWidth="850" pageHeight="1100" math="0" shadow="0">
      <root>
        <mxCell id="0" />
        <mxCell id="1" parent="0" />
        <mxCell id="Qwqy4g0Rz2QXGqjSDHq8-1" value="" style="shape=table;startSize=0;container=1;collapsible=0;childLayout=tableLayout;" vertex="1" parent="1">
          <mxGeometry x="30" y="20" width="240" height="240" as="geometry" />
        </mxCell>
        <mxCell id="Qwqy4g0Rz2QXGqjSDHq8-2" value="" style="shape=tableRow;horizontal=0;startSize=0;swimlaneHead=0;swimlaneBody=0;strokeColor=inherit;top=0;left=0;bottom=0;right=0;collapsible=0;dropTarget=0;fillColor=none;points=[[0,0.5],[1,0.5]];portConstraint=eastwest;" vertex="1" parent="Qwqy4g0Rz2QXGqjSDHq8-1">
          <mxGeometry width="240" height="40" as="geometry" />
        </mxCell>
        <mxCell id="Qwqy4g0Rz2QXGqjSDHq8-3" value="" style="shape=partialRectangle;html=1;whiteSpace=wrap;connectable=0;strokeColor=inherit;overflow=hidden;fillColor=none;top=0;left=0;bottom=0;right=0;pointerEvents=1;" vertex="1" parent="Qwqy4g0Rz2QXGqjSDHq8-2">
          <mxGeometry width="60" height="40" as="geometry">
            <mxRectangle width="60" height="40" as="alternateBounds" />
          </mxGeometry>
        </mxCell>
        <mxCell id="Qwqy4g0Rz2QXGqjSDHq8-4" value="a" style="shape=partialRectangle;html=1;whiteSpace=wrap;connectable=0;strokeColor=inherit;overflow=hidden;fillColor=none;top=0;left=0;bottom=0;right=0;pointerEvents=1;" vertex="1" parent="Qwqy4g0Rz2QXGqjSDHq8-2">
          <mxGeometry x="60" width="60" height="40" as="geometry">
            <mxRectangle width="60" height="40" as="alternateBounds" />
          </mxGeometry>
        </mxCell>
        <mxCell id="Qwqy4g0Rz2QXGqjSDHq8-5" value="b" style="shape=partialRectangle;html=1;whiteSpace=wrap;connectable=0;strokeColor=inherit;overflow=hidden;fillColor=none;top=0;left=0;bottom=0;right=0;pointerEvents=1;" vertex="1" parent="Qwqy4g0Rz2QXGqjSDHq8-2">
          <mxGeometry x="120" width="60" height="40" as="geometry">
            <mxRectangle width="60" height="40" as="alternateBounds" />
          </mxGeometry>
        </mxCell>
        <mxCell id="Qwqy4g0Rz2QXGqjSDHq8-6" value="epsilon" style="shape=partialRectangle;html=1;whiteSpace=wrap;connectable=0;strokeColor=inherit;overflow=hidden;fillColor=none;top=0;left=0;bottom=0;right=0;pointerEvents=1;" vertex="1" parent="Qwqy4g0Rz2QXGqjSDHq8-2">
          <mxGeometry x="180" width="60" height="40" as="geometry">
            <mxRectangle width="60" height="40" as="alternateBounds" />
          </mxGeometry>
        </mxCell>
        <mxCell id="Qwqy4g0Rz2QXGqjSDHq8-7" value="" style="shape=tableRow;horizontal=0;startSize=0;swimlaneHead=0;swimlaneBody=0;strokeColor=inherit;top=0;left=0;bottom=0;right=0;collapsible=0;dropTarget=0;fillColor=none;points=[[0,0.5],[1,0.5]];portConstraint=eastwest;" vertex="1" parent="Qwqy4g0Rz2QXGqjSDHq8-1">
          <mxGeometry y="40" width="240" height="40" as="geometry" />
        </mxCell>
        <mxCell id="Qwqy4g0Rz2QXGqjSDHq8-8" value="q0" style="shape=partialRectangle;html=1;whiteSpace=wrap;connectable=0;strokeColor=inherit;overflow=hidden;fillColor=none;top=0;left=0;bottom=0;right=0;pointerEvents=1;" vertex="1" parent="Qwqy4g0Rz2QXGqjSDHq8-7">
          <mxGeometry width="60" height="40" as="geometry">
            <mxRectangle width="60" height="40" as="alternateBounds" />
          </mxGeometry>
        </mxCell>
        <mxCell id="Qwqy4g0Rz2QXGqjSDHq8-9" value="q1" style="shape=partialRectangle;html=1;whiteSpace=wrap;connectable=0;strokeColor=inherit;overflow=hidden;fillColor=none;top=0;left=0;bottom=0;right=0;pointerEvents=1;" vertex="1" parent="Qwqy4g0Rz2QXGqjSDHq8-7">
          <mxGeometry x="60" width="60" height="40" as="geometry">
            <mxRectangle width="60" height="40" as="alternateBounds" />
          </mxGeometry>
        </mxCell>
        <mxCell id="Qwqy4g0Rz2QXGqjSDHq8-10" value="-" style="shape=partialRectangle;html=1;whiteSpace=wrap;connectable=0;strokeColor=inherit;overflow=hidden;fillColor=none;top=0;left=0;bottom=0;right=0;pointerEvents=1;" vertex="1" parent="Qwqy4g0Rz2QXGqjSDHq8-7">
          <mxGeometry x="120" width="60" height="40" as="geometry">
            <mxRectangle width="60" height="40" as="alternateBounds" />
          </mxGeometry>
        </mxCell>
        <mxCell id="Qwqy4g0Rz2QXGqjSDHq8-11" value="-" style="shape=partialRectangle;html=1;whiteSpace=wrap;connectable=0;strokeColor=inherit;overflow=hidden;fillColor=none;top=0;left=0;bottom=0;right=0;pointerEvents=1;" vertex="1" parent="Qwqy4g0Rz2QXGqjSDHq8-7">
          <mxGeometry x="180" width="60" height="40" as="geometry">
            <mxRectangle width="60" height="40" as="alternateBounds" />
          </mxGeometry>
        </mxCell>
        <mxCell id="Qwqy4g0Rz2QXGqjSDHq8-12" value="" style="shape=tableRow;horizontal=0;startSize=0;swimlaneHead=0;swimlaneBody=0;strokeColor=inherit;top=0;left=0;bottom=0;right=0;collapsible=0;dropTarget=0;fillColor=none;points=[[0,0.5],[1,0.5]];portConstraint=eastwest;" vertex="1" parent="Qwqy4g0Rz2QXGqjSDHq8-1">
          <mxGeometry y="80" width="240" height="40" as="geometry" />
        </mxCell>
        <mxCell id="Qwqy4g0Rz2QXGqjSDHq8-13" value="q1" style="shape=partialRectangle;html=1;whiteSpace=wrap;connectable=0;strokeColor=inherit;overflow=hidden;fillColor=none;top=0;left=0;bottom=0;right=0;pointerEvents=1;" vertex="1" parent="Qwqy4g0Rz2QXGqjSDHq8-12">
          <mxGeometry width="60" height="40" as="geometry">
            <mxRectangle width="60" height="40" as="alternateBounds" />
          </mxGeometry>
        </mxCell>
        <mxCell id="Qwqy4g0Rz2QXGqjSDHq8-14" value="q1" style="shape=partialRectangle;html=1;whiteSpace=wrap;connectable=0;strokeColor=inherit;overflow=hidden;fillColor=none;top=0;left=0;bottom=0;right=0;pointerEvents=1;" vertex="1" parent="Qwqy4g0Rz2QXGqjSDHq8-12">
          <mxGeometry x="60" width="60" height="40" as="geometry">
            <mxRectangle width="60" height="40" as="alternateBounds" />
          </mxGeometry>
        </mxCell>
        <mxCell id="Qwqy4g0Rz2QXGqjSDHq8-15" value="-" style="shape=partialRectangle;html=1;whiteSpace=wrap;connectable=0;strokeColor=inherit;overflow=hidden;fillColor=none;top=0;left=0;bottom=0;right=0;pointerEvents=1;" vertex="1" parent="Qwqy4g0Rz2QXGqjSDHq8-12">
          <mxGeometry x="120" width="60" height="40" as="geometry">
            <mxRectangle width="60" height="40" as="alternateBounds" />
          </mxGeometry>
        </mxCell>
        <mxCell id="Qwqy4g0Rz2QXGqjSDHq8-16" value="q2" style="shape=partialRectangle;html=1;whiteSpace=wrap;connectable=0;strokeColor=inherit;overflow=hidden;fillColor=none;top=0;left=0;bottom=0;right=0;pointerEvents=1;" vertex="1" parent="Qwqy4g0Rz2QXGqjSDHq8-12">
          <mxGeometry x="180" width="60" height="40" as="geometry">
            <mxRectangle width="60" height="40" as="alternateBounds" />
          </mxGeometry>
        </mxCell>
        <mxCell id="Qwqy4g0Rz2QXGqjSDHq8-17" value="" style="shape=tableRow;horizontal=0;startSize=0;swimlaneHead=0;swimlaneBody=0;strokeColor=inherit;top=0;left=0;bottom=0;right=0;collapsible=0;dropTarget=0;fillColor=none;points=[[0,0.5],[1,0.5]];portConstraint=eastwest;" vertex="1" parent="Qwqy4g0Rz2QXGqjSDHq8-1">
          <mxGeometry y="120" width="240" height="40" as="geometry" />
        </mxCell>
        <mxCell id="Qwqy4g0Rz2QXGqjSDHq8-18" value="q2" style="shape=partialRectangle;html=1;whiteSpace=wrap;connectable=0;strokeColor=inherit;overflow=hidden;fillColor=none;top=0;left=0;bottom=0;right=0;pointerEvents=1;" vertex="1" parent="Qwqy4g0Rz2QXGqjSDHq8-17">
          <mxGeometry width="60" height="40" as="geometry">
            <mxRectangle width="60" height="40" as="alternateBounds" />
          </mxGeometry>
        </mxCell>
        <mxCell id="Qwqy4g0Rz2QXGqjSDHq8-19" value="q3" style="shape=partialRectangle;html=1;whiteSpace=wrap;connectable=0;strokeColor=inherit;overflow=hidden;fillColor=none;top=0;left=0;bottom=0;right=0;pointerEvents=1;" vertex="1" parent="Qwqy4g0Rz2QXGqjSDHq8-17">
          <mxGeometry x="60" width="60" height="40" as="geometry">
            <mxRectangle width="60" height="40" as="alternateBounds" />
          </mxGeometry>
        </mxCell>
        <mxCell id="Qwqy4g0Rz2QXGqjSDHq8-20" value="{q2,q3}" style="shape=partialRectangle;html=1;whiteSpace=wrap;connectable=0;strokeColor=inherit;overflow=hidden;fillColor=none;top=0;left=0;bottom=0;right=0;pointerEvents=1;" vertex="1" parent="Qwqy4g0Rz2QXGqjSDHq8-17">
          <mxGeometry x="120" width="60" height="40" as="geometry">
            <mxRectangle width="60" height="40" as="alternateBounds" />
          </mxGeometry>
        </mxCell>
        <mxCell id="Qwqy4g0Rz2QXGqjSDHq8-21" value="-" style="shape=partialRectangle;html=1;whiteSpace=wrap;connectable=0;strokeColor=inherit;overflow=hidden;fillColor=none;top=0;left=0;bottom=0;right=0;pointerEvents=1;" vertex="1" parent="Qwqy4g0Rz2QXGqjSDHq8-17">
          <mxGeometry x="180" width="60" height="40" as="geometry">
            <mxRectangle width="60" height="40" as="alternateBounds" />
          </mxGeometry>
        </mxCell>
        <mxCell id="Qwqy4g0Rz2QXGqjSDHq8-22" value="" style="shape=tableRow;horizontal=0;startSize=0;swimlaneHead=0;swimlaneBody=0;strokeColor=inherit;top=0;left=0;bottom=0;right=0;collapsible=0;dropTarget=0;fillColor=none;points=[[0,0.5],[1,0.5]];portConstraint=eastwest;" vertex="1" parent="Qwqy4g0Rz2QXGqjSDHq8-1">
          <mxGeometry y="160" width="240" height="40" as="geometry" />
        </mxCell>
        <mxCell id="Qwqy4g0Rz2QXGqjSDHq8-23" value="q3" style="shape=partialRectangle;html=1;whiteSpace=wrap;connectable=0;strokeColor=inherit;overflow=hidden;fillColor=none;top=0;left=0;bottom=0;right=0;pointerEvents=1;" vertex="1" parent="Qwqy4g0Rz2QXGqjSDHq8-22">
          <mxGeometry width="60" height="40" as="geometry">
            <mxRectangle width="60" height="40" as="alternateBounds" />
          </mxGeometry>
        </mxCell>
        <mxCell id="Qwqy4g0Rz2QXGqjSDHq8-24" value="q3" style="shape=partialRectangle;html=1;whiteSpace=wrap;connectable=0;strokeColor=inherit;overflow=hidden;fillColor=none;top=0;left=0;bottom=0;right=0;pointerEvents=1;" vertex="1" parent="Qwqy4g0Rz2QXGqjSDHq8-22">
          <mxGeometry x="60" width="60" height="40" as="geometry">
            <mxRectangle width="60" height="40" as="alternateBounds" />
          </mxGeometry>
        </mxCell>
        <mxCell id="Qwqy4g0Rz2QXGqjSDHq8-25" value="q1" style="shape=partialRectangle;html=1;whiteSpace=wrap;connectable=0;strokeColor=inherit;overflow=hidden;fillColor=none;top=0;left=0;bottom=0;right=0;pointerEvents=1;" vertex="1" parent="Qwqy4g0Rz2QXGqjSDHq8-22">
          <mxGeometry x="120" width="60" height="40" as="geometry">
            <mxRectangle width="60" height="40" as="alternateBounds" />
          </mxGeometry>
        </mxCell>
        <mxCell id="Qwqy4g0Rz2QXGqjSDHq8-26" value="q4" style="shape=partialRectangle;html=1;whiteSpace=wrap;connectable=0;strokeColor=inherit;overflow=hidden;fillColor=none;top=0;left=0;bottom=0;right=0;pointerEvents=1;" vertex="1" parent="Qwqy4g0Rz2QXGqjSDHq8-22">
          <mxGeometry x="180" width="60" height="40" as="geometry">
            <mxRectangle width="60" height="40" as="alternateBounds" />
          </mxGeometry>
        </mxCell>
        <mxCell id="Qwqy4g0Rz2QXGqjSDHq8-27" value="" style="shape=tableRow;horizontal=0;startSize=0;swimlaneHead=0;swimlaneBody=0;strokeColor=inherit;top=0;left=0;bottom=0;right=0;collapsible=0;dropTarget=0;fillColor=none;points=[[0,0.5],[1,0.5]];portConstraint=eastwest;" vertex="1" parent="Qwqy4g0Rz2QXGqjSDHq8-1">
          <mxGeometry y="200" width="240" height="40" as="geometry" />
        </mxCell>
        <mxCell id="Qwqy4g0Rz2QXGqjSDHq8-28" value="q4" style="shape=partialRectangle;html=1;whiteSpace=wrap;connectable=0;strokeColor=inherit;overflow=hidden;fillColor=none;top=0;left=0;bottom=0;right=0;pointerEvents=1;" vertex="1" parent="Qwqy4g0Rz2QXGqjSDHq8-27">
          <mxGeometry width="60" height="40" as="geometry">
            <mxRectangle width="60" height="40" as="alternateBounds" />
          </mxGeometry>
        </mxCell>
        <mxCell id="Qwqy4g0Rz2QXGqjSDHq8-29" value="-" style="shape=partialRectangle;html=1;whiteSpace=wrap;connectable=0;strokeColor=inherit;overflow=hidden;fillColor=none;top=0;left=0;bottom=0;right=0;pointerEvents=1;" vertex="1" parent="Qwqy4g0Rz2QXGqjSDHq8-27">
          <mxGeometry x="60" width="60" height="40" as="geometry">
            <mxRectangle width="60" height="40" as="alternateBounds" />
          </mxGeometry>
        </mxCell>
        <mxCell id="Qwqy4g0Rz2QXGqjSDHq8-30" value="-" style="shape=partialRectangle;html=1;whiteSpace=wrap;connectable=0;strokeColor=inherit;overflow=hidden;fillColor=none;top=0;left=0;bottom=0;right=0;pointerEvents=1;" vertex="1" parent="Qwqy4g0Rz2QXGqjSDHq8-27">
          <mxGeometry x="120" width="60" height="40" as="geometry">
            <mxRectangle width="60" height="40" as="alternateBounds" />
          </mxGeometry>
        </mxCell>
        <mxCell id="Qwqy4g0Rz2QXGqjSDHq8-31" value="-" style="shape=partialRectangle;html=1;whiteSpace=wrap;connectable=0;strokeColor=inherit;overflow=hidden;fillColor=none;top=0;left=0;bottom=0;right=0;pointerEvents=1;" vertex="1" parent="Qwqy4g0Rz2QXGqjSDHq8-27">
          <mxGeometry x="180" width="60" height="40" as="geometry">
            <mxRectangle width="60" height="40" as="alternateBounds" />
          </mxGeometry>
        </mxCell>
        <mxCell id="Qwqy4g0Rz2QXGqjSDHq8-32" value="" style="shape=image;verticalLabelPosition=bottom;labelBackgroundColor=default;verticalAlign=top;aspect=fixed;imageAspect=0;image=data:image/png,iVBORw0KGgoAAAANSUhEUgAAAhcAAACpCAYAAACYhh9kAAAAAXNSR0IArs4c6QAAAARnQU1BAACxjwv8YQUAAAAJcEhZcwAADsMAAA7DAcdvqGQAALOtSURBVHhe7d0HoGdXVS/+PXfu9EnvISEJIaRAKgkJCQQIRXoRUQQVEeFZEPU95YnvqX8EfaKiIAiKYAkKJHRCCS2kQEhPIKT3XiZ1+tz2+6/P/t012fy8U5LcmUxmzvfOnnPOPvvsstbaa61dzvnN6AVKhw4dOnTo0KHDNGFo8tihQ4cOHTp06DAt6JyLDh06dOjQocO0onMuOnTo0KFDhw7Tis656NChQ4cOHTpMKzrnokOHDh06dOgwreiciw4dOnTo0KHDtOJhv4ravbnaoUOHDh06dFgbupmLDh06dOjQocO0onMuOnTo0KFDhw7Tis656NChQ4cOHTpMKzrnokOHDh06dOgwreiciw4dOnTo0KHDtKJzLjp06NChQ4cO04rOuejQoUOHDh06TCs656JDhw4dOnToMK3onIsOHTo8JpgxY8bk2U9jTfGDaNOt7zMdOnTYOOiciw4dOmxUcAQmJibKihUr6hd/nY+Pj692EJYvX15GR0frdQZppM00rleuXLk63bJly8rY2Njq+1sSkkZrCx06bGx0zkWHDh02KtJJmDlzZhkaGqqOBSch44eHh6ujkM6D+DaN4FnpwL3Ma0vD+joOnYPRYWOjcy46dOiw0cHYzZ49u56nUzAyMlJnJMTPmjVr9TVnAjzTOhocCkG6uXPn1vNM2+Gn0dGlw8ZG98NlHTp02OigRzgJHAtOgfPFixeXJUuWlO22265stdVWkyl/Gp5btWpVXQaZN29enb3gXCxYsGC187ElYX1nJDq93WFjo5u56NChw0YHo8gx4Cikk3HnnXeWE088sZxyyinljjvuqOnctzeD0+Hcc3PmzKmzG5wSR06Ge1vingtOw/qEDh02NjrnokOHDhsdnIDWEXD+4IMPlu9973vlmmuuWb1UwpHgPJiZMENhdkNa17nnQlrnjp0h7dBh00DnXHTo0GGjw14K+ybsrci9Eo4cB7MR3hi57777yi233FKPHAdLJWY53JNO+pzZSOdiS0Q7Q7Gm0KHDxkbnXHTo0GGjgmPA4HEucvaBs+F8hx12KPfff38566yzyuc+97ny6U9/uh6vuOKKms5+DPstPAvppGypBnR92905GB02NroNnR06dHhMwMlIcBLOO++88qd/+qfVudhjjz3qcsi9995bl0Ke+9znll/91V8t+++/f10eMePh+XxzxPJJOi1bEta3vS2tO3TYGOhmLjp0mESrgAfP16Sc13avw5qRNONIWNawpLHNNtvUpY6777677LnnnuXtb397+b3f+73y5Cc/uZx++unlG9/4Rn2GY5Ef2gIbOTusHY/U6RqU7ankvZP/DlOhcy46dJgEI0UJU5aMl9G0c/Gm4qFVru4Pfk1SnDwchQ5TA43Q1f4KATgZZiUOOeSQ8uIXv7gce+yx5SUveUl57WtfW2l70UUX1bdIPMsJAU6J55MnWxqy3Sl/LR3a6zZ+XcjnBDwyO5TX9rjgkXPAC/Lfpsk+kPc7bJnonIsOHSZBMVKUjBxlmaAsU3EChemcgctNiNLkSLpTqOsGGqHZ/PnzKw3RLp2N4447rhxxxBE1nTQvetGLym677Vauv/76usHTs9Il7dM52VLpnnKZcN3GDd5fG5Iv4IjGuS8mnYi8znw909Lec3m9pfKkQ+dcdOiwGmnkfFNh4cKF9ZoyzdGx+Guvvbb8+Mc/LjfccENZunRpvUfZGtGZxUiDJ955h6mRNG3plh/PQs80XO5xQDgeZi3MILnHgKURhNagdXhkSLqitaO+gD/e1rnqqqvK+eefX2699dbaD9KRxkfLVOlwQMeHDtBt6OzQIUCxmu6lVCnKVlkycJdcckn5/Oc/X37yk5+UBx54oG42fMpTnlJe9apX1c2GDCClu/XWW9ffxMg8uv4yNVrngXESOG1ve9vbygEHHFD+8A//sDz1qU+ttGTc3vSmN1X6fuQjHymHHXZY5ZM80oHDO+dCR/NHDjRFv3y995vf/GZ9Y+fmm2+ub/KIs2z1ile8YvXsEngmeZq84Hjgk2OHLQ8d1zt0mAQFSSlSoBRkjuAYvZNOOql+3Onoo4+uGw2f+cxnlosvvrh88YtfrLMYraHz5oJnjfpS4Xb4aeTIuDU+6MVxu/zyy6szZ5Zi0aJF5cMf/nA1di996UurQyc9HqG351tj1jkWjxxkFU/Qk7P8la98pbzvfe8rN954Y/mFX/iF8rKXvazS2YfOvv/971eeoDceCImUecdO/rdczPz/ApPnHTps0UgjxzGgYHPmgXK9/fbbq0PxK7/yK/VoD8Bpp51WHY6DDz64HHjggVXxSt+O1NrzDv8daJZ0vummm8rZZ59dZyg4Fr5t8Z3vfKd861vfKk9/+tPrq6heUeWEeI7hsmzlWXl0huzRAf3Q0pHcXnbZZfX6Z3/2Z8tb3vKWcvjhh9d755xzTn3L5znPeU5d2kq6O2Yens/zvN9hy0LnXHToMAkKsR0J56ZBwX6AJz3pSfWeqXybCylfGwyPOuqoOkXsefchR9YdpgaDk7QFToKRsOURDgTaczbQmfP2+te/vjzjGc+oz2U6hktIx8J5h0eHdIbNYOyyyy7l0EMPLTvvvHP93giHzzdHfvCDH1QH0Js89sjgBeBBOhJ5hPa8w5aDbs9Fhw6ToAQZOYFxS1CspoF/9KMflauvvrruA6BQKVizGu985zvrjAZwPPQRSyM5Iu8wNXIqHY1ypMuAoRsnzQ+ZGSHvvffeZaeddlrtvEmH/rlslbzqaP3ogK5mhdDVb7f43ojZOfsuLE/tt99+9fdfzjzzzLLvvvuWD37wg9Xhbukvj5avkA5Lhy0LHdc7dGhAIXIuKEjnRnDWmD/wgQ/UozX/N7/5zeU1r3lN3dhmVCddKlQbPSnTzKPDmpEzFwKjJDBqc+fOrRtj0doeFyNoNGX0pE2nzXmOmt1LY9bhkQH90BMP4EMf+lD5j//4j9oHnva0p9WZI0708ccfX2kvPZ5B2wcg70nXYctE51x06DAJypFCbKd57bXwZcgLL7ywrjH/+q//et3YZhR36aWX1lfzpE+HwjNGcgxgh7WD0eIUoJng2qu+Rsto/u1vf7vutzANb1OtGaN0RMxgpANotgj9xa8N67q/uWNd7UdLdERXm2q9HWUZ5Bd/8Rfr7Jw3RMi6PmFpqqV5zvhB8mVLp/eWjs656LDFgeITKMHBGQYKk2OQihLMRngNT5z3/W1o+/rXv14Noaljxg3kmaNrQV5bGpK2DEt7ntd5TKcCrZ17OyR/pMw0vFmiDF/72tdqvMDo5au+kPlAlickT7M8vJM247Y0oEfSKtsvrqVTyqt06GXTsmUSMu+NKJtt/+u//qsefePFcmH2k+Sp/OSTeYnvsGWi29DZYbNHKtNW0Q0aIMowFW8qYgbMK3n2TzBoZirsuxDsBfCbF6bw7aL3TQajOqPvnDKWT5a9JUHbtTuPSdOkf9IdvRgpMxOnnHJKpS8+POEJT6j7LGzsdI6eXlH1Zo4NnmiM7pw+s0TySSOX5WYZaeTcF5/XWxLQJNufsjnoCIiTDqThTKPtddddV374wx+WK6+8su43ylkiv/1iI/Puu+++mv7y02fcd575d9gy0W3o7LBFgNym7FJ4qUgHIQ2l6EjJSmfjJsNHwdrYZi+ANxgYRgrXevRBBx20+vl8Rj5+jCvL3RKg7dpr2YKhQUN0MALmDHDSpOGw2RxoJOxHyTgSL3/5yytt02lwlJYzYaOnmSI/xX7uuefWD2m94Q1vKPvss0/NXzohoQ7KVIec5QD1wn9xWxJfIHmDB5wBPOAYgDjn6XygnTgbli+44IIq994cOfLII+srwr6W+jM/8zP1bRHpOSuezc2dnscXPNzS6Nyhj8656LBFgNxSdpBOQ4u8z5A5NzJu01hjNluR99IAik+FSsHmWyLtSG5LQ+qIHMGm4WHY0Ue813g/9alP1a9v2r/yvOc9r34rBG1boKNnwfPW+42kORk77rhj/UKqb2AAgybvNJh4g4dpNEHdhEH+b+7Q3uQFmXSdToZP3QNnD53M1pH17bffvqaz/MGZsLHWWzvykBYvIZ0UfYdT7Rwfs5yUhw5bFjrnosNmj3QqUtE55nXGUbItKEbGTDxHYl2QVjnyaw3cltZf0EDQfrQT0BJNGB/xljfMWFjL9+l030t44hOfOJlDH/KQPmnKgZMHcBrsebEXw/dHvMFgVA2eYSCVi/aeSX5D62RsSUADNCGneIAnrjlk7onjNLR0Bs4CenNAOB1t/3FumcR1zjKZYRKfzsWWRucOD6FzLjps9qBEKT6GhfymAaREhYxzPxUnULaUpeUPSphiltYzFCcF6lXUdCQgnQx5Dea3JQB90Fvb09CnIXNuBOxT6n6j5fnPf36dsdh1113rs2gnLZpJL7hG+5zxyJG3tF/60pfqGyXW/X/pl36pLqmActNQKjPjWr5saUiaopv2k1lxaMJ5IMvinVsCMTOBV5ZFpLFsxbnQF5z7/Rd8SKdE3s7lQQaUI388cN1hy0PnXHTY7JFGLo0KZUkhUn5pzFpQjJSo+Hvuuadu4DTa9kx+JMt3GGw69B0Go2fGz/cB5O1+5r+lKdekJZonfdHEFDzj9PGPf7y+bcOpeN3rXlfp4z4nDs3sUWlHzmiXeTJgHA1pTc/j01e/+tX62qqlFfnZg5H0x+/MS5w6pRFUry2JL9qq7WidyxnOIR1szoR9RRw/e4n0AXQyKyENunM+OBb2Xlgm4dCZ1cALvHGOX9LJX5/Ykujc4SF0zkWHzR4UH0NDUQKlJ1CYrSFLGLV5g4FT4TsWlKsvEXImKGBKl/I0qqNMvdFw3HHH1Y8MtdhS+0o6A8CgpVN36qmn1tmG/fffv/5WRW4GBHyQFq+AAXQPrTly6A05Nc9R4JjYG+B11S984Qt1JsQeDHsFEvJTn5xdSqdvKr5vrhg09oAOoE+gkQ3LvinilVNvipidsEmZE4d/aI4/Psluv4xXsOXlQ3LPfvazq6Mhf+XIU9iSaNzhv6NzLjps9qBIKbp25oLCbY1gGjWjNkaQEjUa9pop54Eh23bbbatRY/CM0gTOho8+meHwg2YvfOELqyMC7ntuS0LqB/RGZ/QSZ+3+Pe95TzVc3vJAWxDvPictHQzPpIFyzjGQhuFyn1HD06QtQ2cPx2233Vae9axnVR6kEc23duSf/N/SdFg6F8BRRhMzSRwH4Jj5dV/0RDtOsmUSaQXx2Vc867VgP8Hu2yQcDY4Fp05fQdvkmWe2NFp3eAjddy46bPag5BiuVHaMTV5DjmaN3PzMNEXsh8hOOOGEqmi9lWDpg6JlpIyMKWYfGTKbIY7DYdRnNoNRpHBz+nlLQktjdEUDM0Gf+cxn6qukr3zlK+uUOuOWdEevTM+Q4U3mxSFgrJJX8pZefMZ5xnKIV1rNZHhN2KxIQn6ekZ5zIo98dktBzj6gO3pwlDnGnIrvfve7Vb5trH3xi19cZRf9clNm8gN/zBxZurIBVz9wzxKKZUP9Q7yypMXTdOhgS6P5lo7Oueiw2YNSS8VGwTIwlKI4CtCrdqaFKVn3fObYb4fka3dmIHJafdA4UZ577bVXfR1SXpZSGFEjZ/HSSZ/P5HObM7Q1DQs6o4mvax577LF1ZMwIGf2iBTqhrfQMXzoX7omTV85+SMdZyftgxgmPGDqOhWUs5TKQaRxzFA3SOm+N3uaMlDs0c47GlpnItNkeHy/zMSxv3BxzzDGV/mia9Ek+iPNMSzezUJZF0NkMhlk//LTBVrqcuZNHygQkL7JuHTZPdM5Fh80eHAJIRcbAULaCDZqmd200tFHtTW96U13WyFmHTNsqVUpSEEdBSkPBes6ozieqjeSM8ozklC+98tMwDobNAdqhndqbTgLHwrIRQ/Ta1762Gh5A33ZmBy1dt7RI2gzOVLQQryzwnQwGTnm+nso59CznBDIv9cK3zQFpsFOu2mtwnffQimOHHmaSvGnDsfC7IeR2TY5X0q117ATgdKA1/nLQzzvvvHrtDSD5ZPnKJBdt/skD9ztHY/ND51x02OxBeaUCo0ApSUfwg1h++dHnu20I5CBQwIlU1oMKMa9bZeloBC1YIjFdTGnbHEc5ezZnPtRHHXLKf3NRrEkP7TRKtjEWHRgxNE6HQvunG8r1Q1s+tIWujBwHT7zy1E29YHOid0vLlC3xzgXn2V57JjjTX/7yl6sz/eY3v7nKOL6Q0fWFfLMPoa+lQ7MWZo4uuuiiuk8pXzGWTp3SsVMXZWbdM6+812HzwPT38A4dNjFQWIwKBUYR5nStGYaTTz65Kj37K3zGu1Ww6Vi0Cs95OgqMZ46K01Ew5Wz3vClm0/SmnRk7ULbn0sA5B0p1cwH6JI3sP0FjtLbZFW0g6boh4LPg3nIwY+Iz1blRN2mN9huy/I2NVjazXdo6lWyRUc60H4jjAPt1X/uG8CrzafNbFzKtsjgnHEi/HGyZ0f4lR+WT+9bBg86R2PzRORcdtjhQhEZw3/nOd+qbBj7AZFRN2VGUDFAaIUqwdThSIeaR8ZIuHYd0NuwtOP7442v+3j655ZZbanyryD3TXm8OQIs0cgy8mQRvEdgDAYOO1XTDaFl56OrXO21ahPzl2s2J1i0GnQnX2uo64zh7Xtu1wdbGTY4YmHGQNuV+fSB9Og0JM34ca2+O+IE5Sy/yS0fCuf5BPlwL6ilsbv2gQ+dcdNgCQHmlIjR6g89//vNVAdq8aaOh0bV0FKA0QirQVHruJyhM+yzc94w08uBsUKAU7Utf+tL6ZoQf2mLofITIcxRpKljXbb6PZySdvG1j1GrmwBdMOVmQNBXSAZlOZJ6WQ9DdvhcGFdLps7mzNYibA8iPkEY8r5MfYBaNHJpFI/NmGSCdYyDHKcvrC7T0PJ7jr7dQvBG077771j0YfgcmZ4+kc66MlPm27h02L3Qc7bBFgEKjwAQj6jPOOKO+zfFzP/dzkykeGo0xQByFNEKUH8UoD8cM0nMwxFsicW0USIGmojWDYQqaouXMgHSWZlLJSru5AH0Z8vPPP7++EcLImE0Ql/TXfsfphjLQ0z4XrxCjrzd3zFKJ21yRBjoxeA32QVx88cX1+yJ+zdTr00DGyS55Jvcc38FnB4F/0qfT4OiZ3E8jD/uXvB7s66m+AQPy53R7NrGhZKHDY4+Oqx02e1BgLT75yU9Wg+8T1MAIMkQg7WD6dCYGDWMq11TIOTp2P/NjWP04l1//9NPV6Ui0zstgeY9XpFFiZC688MK6FGK5CRgwkCadqumGPNEX/b2ls+eee9YPa/ngExqn87G50Bu0Z5CW7TVak2/84GSZRUrHgvwKrcFfX0OvjOQjfnOynXOa8cAPyfneiNkjb5CoA6C9QB48n7xI3nTYfNA5Fx02e1CcDDnFZ8bC1DCDnz/V3c4cUHjSO1J4qfQoXSGVobgc8XEu5E9RKyNnPsC5TW5GcX4FtF0ekZdjOhmPdyRtrOkbrdog61PfLdBLyLTTCXxI4+gtEVP/Pm5meQbSGG7uSLlC53QsLIvgRcuPpBW6OE95Xxdvsj/kUmLmY2mELOe13x3x9pWZQm9PQdatLWNL4MmWiM656LDZIxWZD/3Ya2FElb8DwhnIkRwlC5k+lR5lmApTmjRSFGk6H+lg5MhZHpmfkaGpaGn9VDjjS/FD5rW5gDEzUmV4zB5wrrQvna2pjMt0AQ/km/TkPCoL39ULf9r7mwO0p22To2vtdk7WzjrrrCrjL3jBC1Zv3iR/6IEv5DJ5sr60kT7pTeb1I8h+AF5H9UaK/Tdmj9Ql66dc6ci/55M3HTYfdM5Fh80elJYpYSM47+H7JVP7IShYii33TQAll4qTYRRcJ8xOtPsrPEexupaP4Fy+FGk+60uGvnfhmw+m6vO+/JxvLtA2s0M+qmT2ANADPXPGIo3PhgBaoim6+2AXPntTh4ORxnBzAznKkE4roINZOobdEhUZzPajE9nFC4becznjJp91IdPIL2fw8Fu+gmtONQfPp8XVw+/15Fs72S8yvevNkTdbMjrnosPjGhRkGi1HSs+5Yyo5MDXr40G+4uh3Q6wTU2icAc5Bjrg8lwHaa8FzlKZnXXs+R+WuU2nKS57i8kejfPvC8ohvAKSDIj9KfVOHdoA6J11bOjsHzps3NMwOta+fJm2NktORm25knZIHYGlG2WZT2jZsTkDP5EHb/jvvvLN+08LeE7IHaCCQueSJ9J7Le+uLTM+p0CeAzAtZB+eWIO038lP7HHLlgn6BZ+mEPpyytzSgTeo3SF4LieTHpoLOuejwuEbbmVoFSblRYqnk7AGg6Bg9Ci4hzeDsxNqgjDbtYAdPiKP0GdN0HrwiyblhgK1BP55HbFPVmcNkbd+PXnkFNemcPEJrwbMbQgnKF4+VkU6l2SIjZ/w3kocNUfZjCW3m4JI3NEjeZJvte/CxrA0F5a2p/+AFuccD33wh+4mcKQF139z4Mp1oaYxO5FtAt6mcjnVhY9B6/TRqhw6bILIjZUdpOx+k4TYtLhhJ2+SX6bJjus7z9cH6dkz5cSAof+d+64JzQ+F6NTC/3Pl4QNJZaB0EIenJcCxatKi+fupz0OlUtek865zTNd1IeRDQHcwUeeXYJtrWwdhckPIrmIFDW7jrrrvqmxqcKzLn7agNiSx3EPjtjSkf7OJ8+kJoonUEyYM88K7Df0cr20mjpPlU99aGNfFqutE5Fx0e1xjsaOC8vWbIrffaYOY9f4qY8aHQ0si5puTWp3OuL+RFeUJueGPsjOTsvTBt/XgCmnLC0plwrY15bW1fm4yU7XUANM2QyHymG8lzZcnfte9bcC44FWaLHKeTx5sKtDnbD9rKkHP0yJw2t/c3JjiZnAuzFFdeeeXqPqc+grpleKzq+HhB0ikdygwZnxi8hqT3xkLnXHR4XCM7UNtp2nPGxO9bcB723nvv2hHT8EAeBzvio4V8ORb2VEA6GX5fw5sqnA3fvni8Qbva0CoxjoXPfRstt7MW0NLXedJjQyDLTNhcam8Mh87oeXMCec6jNua1j4f59DnnIvdDPJZQDzOHZlR8TE6/1CcF8sDxaGWkw7qBXg+XZtlvNwY656LD4xatcRvsMBlnmp5Co9j8CiSIZ9wYQFOz4FzcdHa87PgUqLyNLjkb6sHJYIy9pvd4wVSKrG2jNXXGzfq+Y85WoK3rXHpyns7HdEJdcgTf5m+9X+Bc+O7F5ghtT4fNEqCZC06F14E5HY8l8ENdyIW3RfwsPuci+x5MJVsdHoL+ZcZncIYqIW5N91qg88aidedcdHjcIo1X21l0rry2G52Slc4HfTgYOWshDWXs6L5jm890QL6Zdyp+5xwLsyiWEUwTP16QNBIGlZj9FjZzMuKWnxh3bZcuR9MUJPpnHhsK8k7egiUar6WiNwcINmT5GxMpz0IuN5ApTqtXT+19gUF+bSwoVx3B3gszFN7csgcGD9LBICsd1gx9SECzqWR3MD5lYk2YKo/pRudcdHjcIo0XtB0pjZkPJ1kS4VTY5wCpxNr0OaJeW2d8pJBn61iA8rw1YlnEb448HpDKK2k7CNPwlnqMlPN1w0F6bgj6DkL9WsdCmfZdcObQ3VJBvhq8OSBlFzhvwKFmtP3MfS7LPZZIXlgusx/HTGLr5OGRdmwM+Xi8Yiq5bgPkvdRlGZ9wP8PGQOdcdHhcQsdJpTqI7Dy+CGh910jamxqgg+qo2fk2ZGeTb5ZF8bed3SY7dfFNCPWEjdXpHwmy7ulcDNLNzIU0RqeJNo17qSDzerqReSrTOZqTEQbWzIW9F2jtg2qbC5K+jhwK7eO0aitDviHo/HCgXslzyyK+O4IflgTNXkDKRoc+0GwwtEAvcp1LJTkjKE5atMwwmE8bNjQ6jnZ43EInW5vytHkvFa0P9eiA2el0RME5pey4IaATK5cScARr4OpkhG8PgH0hjydMRXezRNpqySfhWrpUfDnyEud6upFKNs+FhG9voLnZlc1pU2cabnDurSjt09Z2I+fGMCZrg70W6sDRJyOW0Gz+BfKQstFhzSDPeMspQzuOpOCcwyzYy7KpYEYw9mG5tg8z+XohhUreQqt48l56Ye4hMmFsOxbks+IpGenzmUyL+BR9fuDHtfvWiD2fQi4NRkqn7A3R7s0F6IU+hN6aatIS3dDR/aS/c8BDdM+P6OCDe/ns+iL5DPKQn7IY7e9+97vla1/7WnnLW95S39BIOZB/lq+O4hzTMGVdYTDOM239Ui5BfOaZcUCOTMVzcNQPnfzWwyc+8Ym6ue3Vr351/YKiER16ATpoj7w4P/JVZ+dt3hsL2Wb1SRpkO7Xnfe97XzVmv/iLv1iXIFokXQTpPSckxCedM88WmTZpID9ppnIKsz+jpTSZ1jcuvvSlL1VF/OIXv7gcdNBB1dGQTp7S4LFn5SkOWlmYDmhn1jnbySjkl17dJy+ulZ10XxOyntlv/I7ImWeeWb9t8apXvarSwz1laZuAbgnXyky5ci5kv0xkvDplvfI625GQp/uCtrY8smTj933U++d+7ufqcmWmlU+bl7hEnk+VbmMhy9RH1R/N0Bayfm0a54PtR7NsA9olDVvoT/bM+A6OmU1Hn9XnSJBZuiTlXN7JEyA39hjZa+NDdmaLLAs7F5eviA9CnQR5wmC9wb1W3loeaMdg+sfcucj82ooOluGeuCQmOE8GOXffdQbMldZ5djBpUzDSq3fPs+6Ll57QOOdtG/HIZ7BOHfpArwTBT4VP2PAFvSkq8eIcAX3dTyWGD/LCh/WlteezcwryyPxs3jvllFPqnovf/d3frRs6U2ZAGVlOyknWSR3dk3d2muxM+UzbbmjzA/czvSDvjAf15Pycf/759WfJX/rSl9Y2SKsdypVGXOaTbX0sgC5C8kfIfmGK+wMf+EBdU//lX/7lqsDUVXqQLtPmNUgzSMf2Wnp5OOKJe55xnTTJcwFtslz1pITd59SZWfHZdcs3fmr/8MMPX01PabKu4tA9y826ThfaOidNOMKMgjorV59JeVsXpM+81J3M+67Ls571rPKiF72o0iDlyH2y5TzpmfURJ6/MT0haupd1TXo4TziXDvJZob3m1HGo7bVQR78QzBHNXybW5qwTtPlDXju2+W9saKe6Arqihzi0cp7XkLRyD1L3ZRsS7IwZJ/uWrrvuunq0nGt/ELrhYfIs6ZBlQZbvSAfTNdKTIYNjm6wtV9oP5U01S7KWzHz/JT+9nsj81U+emRdkvdt2Chk3iMfcucgKZoXXJDQaiqk5ItFJBAKLAO63DMhr50YCCN12qCzHs86l9Yw8pXPtXnby6W735gB0QSP8Q7MUMLQS555ztJRWnA4JyXfP5XUiebMuZP5t2fJx7gNCfoGUzPzqr/5q/X2FvC//LKPla9Yp8yIPea0NbfvWhrzv6HnPCuSQfOXSAcfHSJMCoGilAe2icDKdPED56yp7QwEtlK0/tEBfivDf/u3fqgOnHRx3bfAMaFfyWR5t0Kap6Jr80XZ5tfQH9+XvXuYhyCOf5VCQN/SloE8//fRy8cUX15/AP+6442oa/Mg2OZcnHZO8aOs0Hch6Z1vUXxz6OBc4GrA+ZWdbwYj3xBNPrI612RntxJ/MX37a6KjNWYfMo02L7q4dXbd8b/nqfgbwvPi2Xs6NxBk55XPyfvCDH1SHWh1bTDe9pxPqpu1JP+1KOrXtdh9t3XOecdkHgGxyyn1FlUz6UUWvSuMhGZBePzLjYObBDAT6cQbIc85sZfnJK89bCrbsZLYO3dNBAXmymRwMDrbvj5jlcp0DblB+ymPKjnZkyLLxE/SZQWwSMxcqmZVOgR9EKhLKQjrE4qXlKMk9Dc6OkfnJ3z3nLfOlgUybjJenOrSdabrbvLkA3RhBNCOw6DsV/9zHI7xLOqM7usojn5FGaGm/Nni25S3oZM79UNV3vvOdOu1qpKqDZnngXFnJf3XIerg3VTsSyvRsPpNlD0K6TEspoIPOjw5mxEx1coAoGks3PtEsjWekVy/187zz7OSPBZJf2YcS+iFH7gtf+EI58sgjy+te97rJO/8d2ZZsT6uQ3BMg+dGWA/ls0nxt99GKLLgGdDc6/K//+q86ovcT+JSukTTFTWGngoY0vtNNb3VWhrzVDb8pdfH6EmWdU9frW3bSwVsY//zP/1zPX/Oa11SjAcqRJtPlMduqLpA8cJ1xU0G9Mo81QT5Je7yQ3jWaG51bonr2s59djj/++JrGvXYpaKr8M266efJIkHVRbzzTp1MPqJ/4HNSmnGu7vm2PVeonS1iWPsCmcxte/USBL5paXqS37J9J5Ez6+kDf5GBwNjkxXlH268AGNXSP+nIqLBnnbB5nRp3xQr2Vlfxw1CZt01/EZR/L/tJik9hzAfLNvFvBynhxyTyCmx64jumIaaCRg/m4RoBsvHOB0HtOuhQA8a4zbebVYc1AL3SiHNERXdERvxxTYSX/CCS0ndF5KreMXxeUm8Itf+Um3/zstxGSTsPoUdjSup9pPAeea5GyNBi/NuQz6p5yB9qm3Kybzkm5kF8OhNG0zv4bv/EbdeqSoZYXBaN+nveco3jy3ea/saEeys86UGBnn312+d73vlen4o2YAR+1u+V90lMeiXW1JZ9fG9CFkabgs/+nHFGm5557bs3DFPyXv/zlOlo+9NBDq4xIi9YcDHCtTekIt3WdDmR+6pM00mfEp05T9vrymIyop7zsZ+BcWJ7i5GWbpEEjeSsXjUDZg+WlzD0c2V8b5CVP+0rwwdEM14c//OHKB84Fw+fbF7/wC79QN3xqC7Q0aM/l+VhBPdRPHZw7ukavvJc8dZ6yq99zKCwJcSrM9pEzTsTRRx9ddZRzOsBATX7kV5CP4/qiLRfwHg/Uy6wGZ8MvRFuStTxF56iLPsEpfcELXlDrwoGQl70eZlHVIWUp7aX7aODeIF82mQ2dKpkVdY04ji1ca5x0maaN96xGikcAx0yDsAKm6VzycC+JJY9WcefRM9JNRbwtHWiUI20KCk1TcSXdp4KO5r5n0JRSzc70cGmcHcezWTZ89atfLd/+9rfLa1/72tpxGXL1gzXVTV6mEQWzCToch4lCdJ4ypWNxanU+Iwl5O3JgBO1KpDyrI2grZfrJT36ydmJ5mRa1uU2ZDJ7RCuNgLd79bFeWn7K5MZFlZh/NeqDPaaedVttwwgkn1OWG7FvSZcjnp6I9+hphUWLoTD4cBfKFLuSDgkNz9EUXNDfaQ69UdoMwKvzGN75R168pcdPPlKiRGVobrR177LHVqCXwSH2VOd1IWUUjIcsQr8ykK5qtD5IX6HTFFVeUf/3Xf61tIk+MVMpd0l965ef1INTJLA9emNXBF3KIJu6RQWUBudcPyLxZN9P2ysSXtg8kTj755OqEcvLsC3n5y19eR+Xf//73q561X2cq52KwrutLmw0BZbfygZYZD+id+ixpoN2WqwwiyDI6mVWyiRst/N4RpyKXw1rIz4ZOAxJ8SZ3kPPmgrNQRaI+mvu3i3DGXV1uYRZGvWaT8OXybyzkfNn5y/N7whjfUn8tv64VP2pptS/maSndvUs6FispfRbOTtZDGffGppAh7y2D3hLbRgCiZdlDw8x4mCfIRlKHMzLPDTwNNknbJD0reNWOjQ+gIhNsGIvse8j4krXUYPHEN4tYHg/KQPFIm50Idfu3Xfq1uXBrkuTqYGjTas8lPZ9X5TZ2rTypU7csgf51YuYK2qLPOpyMzcsoynamDGjmadqRMUg6Bofubv/mbmsZzFDlFY/TG0OrYZlzUIZdHyHPS67FA0jbbjt6COlraQbfnP//55Ygjjqj31Tdp1EJb0RsNGK6ctuUEOEd7vMnnHZWh7QxZ0kBw7fsVaM7JcO5o5G45DO2k41CYIVK2PBlA55Qz+ZAWD6XVpswfst3TheSjstVFG7RXea1zDFmHtSHrx1gYjZ500kmVD0agynI/++ZUbbHujx+WVPAEL1yjeTp8+kH2L3VWd+doJr7tA2SdoST3HAUyrj/gidG6ZSnOuzb7gqjylfv617++Glq8UcZgXdvr9aHLhoK60QXanTol5SXpDNKYNfvMZz5TPve5z9U2ciL0cx83009s5G6fIfv6kc+3c+zoT7ygpxh99/FCSJlJuqiXuBz0qBunD90FughfnNPFbb+kL/U/Dsapp55aZyLx3QZQDqA+QrfJD5Sj3NRprska+W35tMnNXIBKDwqTe44EGRCEkCMigiaTpMlns66uNR7kLd7zBIACkof7SaAsL8uCzKvDTyNphcbOKTmbFC1JUFhojE8UidG4YyvYnjFSRfc0HOsL5eJ7lu0af5Vr1oJyfOtb31o7m/sMt41OFJr1R9OCvpApvQ5L6akLeSIXOTPhmI4EWZGPzq48TkmOKNQjRwrOKVXTvgye0TIj6J58jBK++MUv1qliillaoxqjfx1audk+dXOuXg+HPtMJ7QHlZx3UDS3st8i65zo/vmc69ccLIyXtFTh1DBjZSKWJd2iB9tkvleFc+ZkWvZWrD6eiE4zYBMqToaJQzVqhuVmKz372szU/z+ATJ+6Nb3xj5Uf2f2W2mG56p4ySM+fapu3qlXKkbuRN3LrKT76QXfLs1etXvvKV5YUvfGF91v32mPKKX5zpH/7wh9UI6gPi0FXdlJ+8IHeu0UY/dZSXdII+71n5grQ5csYPU+z4wIljxDj++qA8pDWj9Hu/93u1LHFrQrZ1bWk2NNSBnOCNczwU0la4hxcM9Ec+8pGqh8ihjc4veclLalvRJcGIcyL0B3ywqdPbIhwMdM1+xOlCH7KDZs7TuZMGHxyTt47qRXel/lIuHuCH/mEzp3vtz/HTa/aB2BPzla98pfY5rzTTY/YpcRpBH4LsO9KpT/IINinnQt7OESwhPpUrAmXH1JEoK9M2BFgjM63nB70ohBfv+fTyCQFCI5iyESyFxHXWY0O0eXMA+lJG6GbEAv/4j/9Y/uM//qMKvw1bDCoh1WF+6Zd+qb65YYQJhBI/8Abd0RkPxa0v1CF5Jx/l8v4ZE8bn53/+52vnMQIw/WqXujVG04E6tk6bI6zscJQpL51R0iHl2cqTjssIZN3lQzmTR+Voq6UPoxX1kp9NU4yZKWuvg6GL9/0/+tGP1ufUUQd+85vfXEc4CfnLQ1mp1B8rJK0d8Un/0HajM/2Oc2E0BslLxoSzifb6nJEx+qGtT6C3I10jJRvK0ALN5a8sbZdf0sIR/fVf+QmUIh4oT+C4kLOXvexldfmJnKI3vcHwUfam4fFBOeqabcp+D9NJb3mRebKuHcqj07IMSp2BISeMQHtvTUiZ5Lxx2rze/LM/+7N1/0sCLcgvx5ozYUZPH+BYk1H1YQCNTjmHBgCMDqcYf9JoCNLijXagufppi74mfzzIPoAvDCdDKY2NtORfG8mEZ2xk/qM/+qPK+xZTtTvjss2PBdqy0UC70ISMkmvOAYfCq9lmH8xA0nnsFB6ksZcWHcwWkEmDDQ6GPOkegw26CF1yFjSdTvSXB71CVtVB/8ujPpkzH47tDC0ekQczGOpGLwmu5SdoIx2qzxo42KekX7/pTW+qA8R8845Dod3aD4M822ScC5D3VILDmdAIzAHK2AeITLP92Z/9We0UiAKYBoi/JmAqDx+xjRIJPVBYFLiydPxEW6e2ro8WU7X1keDh1kW508VH+egQgnzxhTLh5doohw/WWf/yL/+y8uYf/uEfqhGH9HYT8mA4dKD1qaO0BDs7GJ7hn45ByepkeGva/pvf/GblO+WXoykK2JFzoePqtOqTI4JEK3tphBLqoB3i1Nk151XZlDcnhyNjpoR8URqmRXVSRpUjxiHTYS2VGN1oP2gTmigbLfQDdVOfddEmZSvT5XViXc8PQvs8o2x5uUYj7dQGwPP999+/3rOmborVBjZ0BwosnSuzC3bG54hM0E6hratzZULW2VEZaEOZCq4pUg4HRU3BM37OyR3nhZKmzBnPd7/73XWEj19Cli1v+SmTbLlWhzxm+YNo6wxTpXckK6lj2jTwwQ9+sCpym3vJQY5w8/msR8I1GsjLaFXb7H8x0sxXbYE80ncnn3xydSo4FJw7BsOMAocCP+hR/RUd8DZpkvQHZWadUz6FrFfyhBFTJ7oaL/Q7/YHTneBE4sPb3/72yZifRttWcC20dVgbMs1gPo8E8tI2spL6SfvljUbAqdWH/+Vf/qXqE7NiDDI643mCE2h5iIOVP1zIkaCLBPJJH+gb+js5TD4oF2+EqdrnXD3VTaAzBA4FHuC/ARYHU3+Rt7K8FmxpSvkJfMSvf//3f6+vmutbv/Irv1L++I//uPZz0O8SWZ/EY+5cDFYI85KIBNP0EqFETEoJETT4T//0T6sCe+c731k3LyE+RW50pINgDG8RsQg6Jce7lzdPziYW+dih/L/+1/+qniGmZEdKomlvMtK5+kEaNXHSDjJbcJ3P5b01IfORPwVEIJy3Apweq7IghXoqyCvLB3loH2R9tQGUAXkt7frUGaSRXypkxoZSp9By6UknMmqkLO0Sp8yU5TnPKGuQrvKTd/IDsj2e05akQ7YrO7DydV7LDupgRzRaKZdBI0c6vF3rDPyGAh5SOOSNrJFNMmsUQbFSIhwOndw6+f/4H/+jOh8ph9lOx2y7eMd1IUcVa5MRQPt1QXn4oR7pDJIZvDI64lzoPwwaejNiRj36mDpYZ3aPQtI+NOfgZV7TCe2hSDl0lGmODPGAscMPZb/nPe8pv/mbvzn5VJ9XaKW+aK7N5Mt5OsHO5Z9ylnxKtHwCTo20yQPPoptn5O1ayHJ85ZQj/Cd/8ifVKR7kc/YR+XlOneWlDIqfM0fWzVzQe/oBnYgfHHzPk3v9wDKdr5TiB6diXXLySKG9Bht0L3kQ8vsOggEIZ8qAQ50g6ZR1Um9x2pl6Jvv+moB2nsMTzw3SEuTp/rryAs/jUZafegrE69cf+tCH6kifE/2Od7yjOoi5jKAu3haxJGSgQweolwGOdtNFdJOBTs4CbwiQCc4lOVFnm4DNttDb5EA/NeA225cwCOdgtAPH//t//28dJIH+weFCh6Rz7QtB4MfUuZCfkJ00p5tNY/KWMIEXqLKchLe97W21EX//939fFQevlxPBAaG8KW33eYem5e14NZI1w8E42xmOGKYgEdm0uTwoR2VAHgmQuiGYOAKSxEsBz/pnuoR77TWol3alAdYeDhTjQhHpUILzXPvMuhBExpnTlMJNSZrWJRSUn/vicuNNIuuXecFgfeXpfirSbNv6wrPSUyL4YgOdtqkvA4QHOs9f/dVfrZ5Wy/I9q9MqUzshaS0O3aTRZvV0LVA+6OVejvYZFpvaODHkAT0oLlOA6WxOZdTko6yH225Qz/aZQb4n8BRdOLo2b5I/TpipT5umBCNKaDususnz4RgA9PS8o5kD/Qg/1JMi0w8GR8ZrAxqrh7TydUQr9KYwKR3nRkRmjSxvcJ4oIuv/7VLPINan/PVB1qmFOLJnkMLQGimiBblgwL06a/SOFtJqJ1pncE0nmRnN+2QQLciqe2ZQtR8/9V19kpxZVkArDpdn6R+QbyvTWWfGyVq35UN9hH6QjlOWm05BenVoHSJpybv+h9bkioONF/SL57UXLxj0lLMW6iio38OB9J5rsaY89AEOHn5YLlVnbeD0+Az+K17xitUOP7plv271gfauq47u5zNoDPQuuqApWrIVeDhY97UBz8i559UND8j8e9/73uo0oO3//t//u8pV8ksb9RGzShwM9bGEaKBML3FABuW2xcOp35owFb3Qx9IVW4kXHFD0wQsOqhkw50AfeevKzAze6dfaqf6Qjm7yBo0fU+dCJdI4tEYFjDzMShA000s6pukcDoPpzU996lNVQZtulweFzZBZRyW8jJiGmvokpH/3d39XBfd3fud36gjG++CEDRERChAQk9VH3bJO2kxJO6bAKBMBlUFY3G+VhSA9oitHB6eEKDr1c1QPoyujDu1O5gyW56g+jspQrnMKkQKjKDlgOgslYmRCwfCAtUGeOkIrYOovgDoL2q/jUDw6vDLWB/JVL8oVnQkr5SgYHRFYil0d3v/+91dHDpTf0irb5VqdQb5o414qUmlaeoiXxjqvTvzxj3+8euOcCrMBvHAjtMH2e15+ykuIm07IDy/xIcvJvQI6s/0Kpu6NXmxqM9ohxymL6oc3mY+2tu1YE6RBMzMIRh1ow6ia+SLzPomeSnx92iw/NCMf6qdOQIaNmC3tGJW6Zy+FZR8zii2vtaWt+3TTusUgjdDT7AXaU6QGLq45Fjb9MmwcIvIkAPoL6ik/8c4F/VpbTfnjoT6ON/o5cGTzy7AGEninr4I82/6d+NjHPlYHTWbW6DgyLT+DBVPWDFLKBnnKNuIz+oo3GqUXLa+QL88akBlkcVLa8jwnpJxlftPNlyxDSKCl0TPZMatJdtRNf/2t3/qtKjccETpOW1P2XKcOWBeyPfKhDzjZnEsOoGUIr6mbKVjf9qYM0Gf0Lf4YpBrMcOTI0p//+Z9X3rsnX/3vn/7pn2o7yRedZE+NkIYbfbQp4bmsO6Q8tnGPBvJveaGudINBIQeCk0SWzGDYE2MTqvaCjfp//dd/XQdJ+sy73vWu+uYLGrPRqRdg5v8XmDx/TKCRKoSAiIfIAqVl+oxB5vnxzBnMXMcnjLx03pUOjHGeF0eRmorXETHTqIMCx1BTtIjLeVFGjgqUL6iLoF7yw3ijE+dtx6QcUmEK7nsuz93nONhARfkweJ/+9KerkHk1zkhHGkrECC+njjlPvEEjDJ5tTlGpuyk0m2+MitQZHXQ4dEoPlHDwkHUiMwbqgulokAJFMaq7OHWWh3a6FtwH99aF7JiE0e5zClKZf/iHf1iVtjV2zp066ZTakbxSBzRPWoPr7GziMv90LKTN9NKKByMCjiYjp70cU9PLOryZnWw7yN+z8mjLzrKmC22+QpalfpSndW5KDigpr6yhic7KwaMEtbnlQ9uOtUE5RlSmMh0ZfPJFzvQhfJFmfdssnfTkgzJSL3zl8DPU6k9Rc1r+z//5P1WOObueI09C9qsNBfVKeUokD5TN0KK7tqM9h0A/UXfp9EO88fxUskl+ybk0DB49Q96N5LSXsqWIxZN3ZXKu0QHdUn4TzttreoFiV7Z89Hd1yPVxgwYOiny0NevmqCz6zBKVzYR0AofE6FK9tFedE/gibxis14ZA1jXhXFvUi9zYfGuKHi05gPhEx7Wy71y7PavO64J0eCZPfLJMii/sCZ3HuCt7ffOiN5L/2kPf/e3f/m2dbSJTltcNVLN+HA70Z4vM2nKa/uf//J9Vvxv4Mcja1LZRGdnXBMjr6ULmlUd1NUClI9STvmRvOac5YODwkh8DEvqbbTFgxCs21OwrmmRdHR9z50JFCDnlk0pLHE+JkjXaVVGK1hodRuioOfLXASk5HZCXqGNb88p1dlPA8iNQFAAHxQib54UYlC3BVoby5e9cnVLoENW1cjgE4qVLgyf/DGBkRJi9isSh4BEavbRrWmZRzKoY3bnm7VL6FFwGjMa4DBSVES6DmY4IJeQ509wEXNu1g9L0JTgjGOVbN0tnKuuuTersXJu1zbOcqFbg1wV5oKVAOXIIdUB0Nori2RNEQqq+6ij/pJnnEuoB6KqjUbTOk84gTfucdWprgKaA0YyBs/GI00lWpJOXAK7l5yifLCfrM53IemZ7KCc0RnP04FzgCXoZWRkJ69j4SQF5RnvlwclFN+drQ7YBPRhO066W/4x8KVR04byoh7zVbV3IMtFJf1CG9WV059iZcrfrPzeqap+04NwzylGmvk72Ho6MrQ/kmbROXqpD205xZCJn+NBd/6Af3GNsOAOZFtBdG0D+ec6hl84bKTbuUc70jXiDGXqFvBsEKF89tDn7XbY/dQpFLuARx5wRUpfcr8DgppLPtnkOjMwtq3D09N9f//Vfr8FgxABGvaUXsnzPihfEqceG4Iv8k5bJDxCvD5hVpLvQ3vI2vcU5Qk86M/uNdrV8WReksxToFWSzxeTfzIjZQbxHZ0Z1ffMDdUYftsCM4Mknn1zl3ayjb4u4Z+BoU6dZXANMM+/MrD7NrkmjHWid/Mt+Di29wD14OPVcG+QjT/x2TJo6chzQhZ1kL/QNOlyfyf4iDbrp9+RS+9mizFu7ar6PtXORUCmdVsUoH56RDqoxhMKog7LkPOi0mIuJjCyP/5Of/GRljvVKzxhREUidHbMoWY4ERc6bRTSMd03BK5/gY7xz8BwiJcHkr2OrJ4XjOhUNQ6pTcCoYU3XVBordZr10JIwitIfS4UBQ9BhF2WfQ4bRBZ+JcCZgrjqJyX7r0/DkdjCpnzEyNc/mimfqrG+eL184pky8B0ZZBaKt2OWr/+oJg6jhozhFUppEIRctIcijUl7LDP3RTRpYHWa68lE34k+aQyq/tfBxKI2X8RFc7mW3SRSMjA7RLZJuyXEH+mWeb73Qh29aWl9dZZnZohsNMF0cMDTmN+IyH6JoGem3I+nvGdDMHQJlGGJYBKGtlJbJe64I85OmoDpafzAwZvZHr3//936/rzOidfMt881l0Bs8nj6cT8kv6ZFmQtHZMR0M9GTN9B40pUAMOI1r9Upz06p3tTqOQBpq85wwio0gGHY1UDW7svaB0TeUnLdQDL13LS33kJW+Kmn4jv2b49BGK2z19V530d85Cm59+xpCZtSBLRtCWQpSvneqeMu4518p2nvm4n2mShtOFLEO5WaZy0BXINRqhO52lPQwXeeVc5SBB/bLe60Km4bBzAtAc7ehGM78GaPJOXqLxuqDOAtDxZojALKmlRjqHbeHgWTrAW8sKZiuUS06Sztox2JakSxuX/WYwfrog3+Q3GqkzXpBr+ogM4gX7wW6gXTqEaEfm6XiOIB0vP/HCJuFcIFoSLonP8PM4MYtRZag5Exik4+WULINFEVsSADMARs6UtI6FqYQXgRCAAGOYkbw0CMVrTgOG0C0jU1ESvlTu7iEecDIoJgLlNUuGQR0Jr1Ec4fJOvVEIR4di0FFSmLO9LQ1AnDLUNevjWnnqBCkU7ssP8zkqvE47eX03gRPDoDC06MfJUl90RR/C4znPZyBgysv81wZlqyPBlBehM0XGoeBEoD+PXl1cc+YoEHlro+fRN5F0EPJ+1gPPQTmeoYi9NWT6zuwPUeZgeAadpEdreU2FLDfLWFO6RwNl4JujcpLGrtFNUK4ObWTAmJBrbWJMGD/ypC1kdV11zPt4aAaNoSNzjCanncIgh87RUZ3WBXlqg6O6M6BmKazvW8u3zqzuaKg95HOwr+TzynRM3k4n5AvyVo+kuXo4Zl0AfZyT09z1bvqcEkV3dKJ35KMt8pSPPD2LDvoNh8D+L/2KQ4HOHHjOnDzIPb6B8gXPZ330G/3QNR1mxpHeMEuRtJKnqXdG1swlByLbZmRun8aJJ55YnQmGzoyFMpUD+CEfdQbPTgX35TndaHmhHlmGOHQVQPmMF/1h5sIsqKUrOoTuwK+su3zWhryPn5Yb1cHsBR6ht0GYeohXPlqvC/KUVj6WQ9iUfNuQTlM3NovTwSZ5G8k9TmzWXTnZT5Tf0sQx65108Ux7f7ogL/RWF1AWeSGP5F15dJEBqzrQRwbx9BTbph30iL0abB57wtboT1nPTWJZBCi7VHgMgg6OAab7jL4YRELGUGsc5mmsTsygUKCUnU6eCkTj02NkXHU+jAbE886ve5wOwgHqkwF0TEwQEJmSd1RHSx0E1yZFIzlCa4rUlLwOzuDpKJRQQn4YqI6YqY1teQllYLj4VvAwPhU3pFDIrxVA59rGm+SFooNZA/nyNk2/c8LQmbIiNInsANKuC8rThjT8ObpSllklwil/wSyOctQtaaCsbFvWHY2UL122SVptTcE3M6KDW3biuOGBskzlSZezPFk/QbyQyDLlB+vT3oeDzFvZeOQ6+QautV+5ST+OLmfQKBqf0JKRSgO0LsgT0NfzZJRzxwkwe8a5VqZ4R3K9PpCvoL8ZlTF2ZuRMxaujqXttRHc8kla7HLU5y3LN8Uuj6nq6MDb20CxDYpDn6oCOjuqE7uqLxo50iFdXs8+on/TJN3l7VmBczJSZsbTsZI+UNXfp7ZEg76bCySGZTl0ymJ9ywWCHY6lcAwT0oRPpNPsFOCoGT2icutJeLvuMDCo4efZZiHff88rR/qSzfpR9oaXT0NCGc67JhTYLrpNH6pYhoQ4GIPQm/YzGdDNdkvSQpn1mKmRbzFyYRW77D1uB33Q4WgktLaZC5sfR880QTgT+mpVQX/fJwf/7f/+v2qzf/u3frq/YchK113PsgHRpA5Im4pSfZeBN8sh9MpP3pgvKyzKzPHQgW8pkX4E+N3CwVIuOBuVkmrzR5eRJnzGDSXfRBeS58icKeFiIikxrSETjVl+HMPbCE+oFA3oxMuiF4e5Fx+uFx1jjQjnV+66D0b277rqrd9ttt/VCIfdOPfXUXiiHXghm75prrumFZ98LL7hehwKsZcgjmN0Lz7g+E4Sr5WZ8ML9eqxOEY9ILJVTPs47Kf+9739sLASWVvVe96lW9cIJ6N998c61fPisvaaNTrG5zMGT1eUKbg6GT5Y9Oxj4EdVOPZcuX1bRRkxovL/cyL0f3xSXUJdt23XXX9WKU03vxi1/cC+HohQPWe9/73tdbtGjRZOo+sn5rC6Bd6p3XIE6bE+rYr3O/na7VRXugzU9d0dq186RjPgfoe9JJJ/VCwHsxmuvFyLHGg3LRXPpwNOp55t2Wk8hyRkdHemPjD/FlWkJThtBC/dAp6dKmidFA74/+6I96YZR6YUx64STU+DDs/y39VCHxsY99rBcj3V4Yvl44A5XH6IH2eJa0nSqPNmS6cEh6MSrrxSiyF6OU2vcAH/FE2gReiWvrm+3t5zl1WY8mZJ599I/KI09C1oUeCONfz7NvQoxqe29729tqf37zm9/cC0Va49v+nEDDcG57oUx7r33ta1fLJl0UDkcvDE4vBhlVB4E8sl9kPeCh+vZ6H/zgB3sxGOiFUepde+21NY5ee/vb397be++9e//1X/9V44BsX3rppb1wqKucvOc976l1SvTp0e9L+JM6LWnVFFuv1X9l6IjaX/ytTvdow/hP9cGKydOMyrRALqWnkz/84Q/3wrjVtscgrt6Hh/Jec0jE4KMXxrH36le/uhcj7BqHF/Thgw8+uFpPTpVHGxL4gd9o/q53vWsytq/z3vrWt1bZCWe+9uEWKT+p+4TMV5x6jIysquejY6OVBsJ40C8xWKdHGoAMptyLU/6qVX0ZAfVLm6fuV155Ze85z3lOb+HChb13v/vdlQ6gH73jHe/ohZNS5fSKK66o8fCYzlzwmoKYNfDOHMWlNxeNrl6mPRFG4NY48570RgQZL5g6MzPhKJii4Z2aIuT98rQyf96VaUZp5JWerfu8LmUHwas3J14Q776pNbuALYOYOvJmhI1CvOvMLwRjdVmeE4Leq+N6MZgKnpbx0bE4j5FFONXDwzaKSjs52h3prw/PiJuZz7C8YpTRmwhPNv4NDRlRPuT9Jl2lB/mAdmiz+pmp4Y2ih6lYnriRJw8cvVvIK495nsg47VVeCGO9VpYjfibNBPULga5x6pLPoZWjNOqb9ErZcA8/pAeesleJrc0akYchqLIA0kgr4Gk+A1kPZQjOk07BihI1iOD/frr615s8Tv5FLjJqroI/9Th5HfnMmGGk2CsTUYb6q4P8nEenrm1TbgbIeOnIqhGP9hnJGk2QLce2PWuDfIyUci+QpQx8tlQizgwGHtR2Rki059DeN3tobd9UqD0WXvsGbZBXldnJdmR8tqkEHeMkjpMzYtEBZpDdSFdD0lkyNHQdMt7+wer6RJBNZDF5HaM8h+Bf+BhlfKwfr38gsT6lPilHw8Ozan1zdC+tNXgjLzM+ljvoEPtepPNctsu19mqr2VOjY7CkYfrYJmqzgmY/zBaBGTZ7YPQvoz7Py1OdUi+YwrcUYPkyHII6++GNA/wzK+LVSXUEfcyskRkNsmEETfepG8hTv5Ku3x/7/StDmLSgkxleyxX9OHUxg1F7QPIjz6cK8cxqvgbqoYZgTP+kBvmORb1WrVpRy0wZdj46NqEGZWhmpK19p8+refPm171BZsosVxk527yfM5/rQq1bIIxk5aW3A+k+z1tysZykj+kjY5N6am2QXzglVfeYLdJHvWpsBgTwlj3AW9+CUPe2nvihHMCPvk6QL973+0ql/aSuD+pOaqJAyLOjq3qMB+pf8kFszQwBJQjdE6FXr/NevdFPG6j0DqyMNs0M/s/Ck4gKZ7DmP3MmHkU+0U+H45zcopHZJHshtdvMjZkN/UCfIa+WtawYaO8Gcy50nOw0UAkyGcC9TNMn7ENr7841hHFnNDBCHHgGc6TVkdzPe57RaVNQlOVee2zrIN1DjO4rf9fSKgfRXEuXeRIu6/wnn3xyFSBf+rN5iiLKNJ5LxZHPZh1r+fHXGwthWzFStePQLPGhFGbE9YzRiDONq9PFZZlZVq4ypa6ufeEbHWEgPYNWk+2JxP30ffplG5OmIA7NtEnH4kxYrrBGbN1Mp6MQOUxJD0H9tUlezmsbJvNSlpD8yPYKSYNsuzSZh5DPCZkG8INilF/yPhUlB8aUpHVuy2GWoEwjQ5uP+nlWHAzWAbIdNfjrBd3oZrexEgkHQiStoWQ6vApFXcbjYiLKcK+sjKN9MeSb7PVphh6g7W3Z4rUv5RDINUVoWthUJAebU5j31wXpGCIB70xz2sekLAaUc5EOWdLNEc0961ra5D/n04ZB35OxcZPMUzjyllaQlsPcb8ekkoy8KrkFBg6BRATdQnTjfpxrU9JOZNAsSNd/JhH8kNf4uI9a9V/RZYRGx7194pW+fln1MY53nAzVduA9Oewr8RinRVp9ui8b9EXWXb31Bw6HZU5OmCngfGMBPZTrOUf7vQxq6Kl8Gyv7VjrwNpGL43Bw7CzpGhBxFEGdQfm5VIU/QFmTC9PNHGhKW3oOOj1kKZAxM7DJvUbJy5S1bB9HDtn7xQWfevZj0D8GdH1iB7WCLWiHUBElrVtCv/v0IX7ynoP/qqxMrIqoGCzV+1GHuKFbKDvG3xGinwyFzqhqMugZhURtI5X+EDGhEw2u1BfUHS05b5aq0M0eJPHauTa4j1aMH5oaEMrDdxosM+GXpSf8htRdVYYmaVfpFtfuOcdfy+B0JXp7eUD++oaPNHK6veXD6Ug+gPMMfbnNNupr4eQFzcbQfJyum9QLaBYDzxUPLon6xyCgMP6RRv8IOlUeyWJST0XWcQybGjwdL3iLtjOVUEaDIfURSeKZfvMiR2WEczccjsaMCPpIr8ewTOqDuK7ORTBMvyN/nDw6AE3t/0lHWV8xEOLgknFO2wZ1LiAZlsQVLwwSGzQoGQIq3UI+bVoNnAryHUSbb0LHzXwIkA4OypCHe8rMZ3ltPs5FUdi84nO9Ribup/F17vnWUCSq0NSeV/lXHYxZs0PQwmmIcUaUv6wKB/lhkGbODEcnwkidwRgKIQiGx7OjfsY/0kQ/rFJFQIbiXs3/p4us9cl2AEWYbTKjox2cDGtm1tRyAxWhAe3Ch9aIJG8H6YyO7mc8GrRwT1ybBpKn4B5QoM5TkShT/l5HZuQoHK9/WYdOI5mGMUPKmXyy/eBcmT8V54/D0G9a6YXepX+j79fzsRUhL8uCHvyGSKOaDNWM4XhIQp29hDyq/gwMGqkKYuZMb6v026TMtq2DyDqRQ3Xn6DEiRl5GXfmxN2nWFbRbftau7X/hTOC1V0aNdBlFRhTQreVHQpx7eMbJ8XodJ8VMnbzEKyP7UZZNduvzQSgqjrWRvRLidhkalkbaMEVm7sbjGl2kWR6kXBppkFB3DHqPRdzK5XEzlB0FuPTBZWXO7DmRD6dgpKwMxsydUz30CNGf4m+m81oehk4yMqBu2gStfkm+6B+MTm5gY9Bs+NQ+PHGUFo8oUAMMxl9/oXy9HWLflSPap/K1o96mdPEUsBlVtJJP0lB+FDM+2x8mDWPqTYR8ow2Mum3g9Aq2vR5mkHLPWPLBMftfn7dB7yqGzvWTMKZh6Bk3JqmmCT6U8XieLGNHyPv4A3EM2Q8fpEwEH0buC5lYEnGj0b8ibkgRkZYRGo9+MKETqcOkYUNpKm8GugW/hmaOV+OnzMqrGFmpbyt+ZAOtOVscLTM59iCRV0Y9N8i2UH/5JI36efY/Uka/4YGBCUcA//EFbXNQSL8pM/PwbOYJ6Gn2w1uJ+OgNKX0J32ya9tkBdfWRRnyXvtJ0EvJJGesj7oVshgSE4efEx73x0A/Bo6hGxMcx+sbIspVlHv0WfYYvWIIXZVWch0jTS+MR8IGaGZ0IyvbCwYuBDd00iqXJhzivfIigWrqFPjI8i51yU/8g39H2uFldP/cn+/LSJf0PmmmX/Xre5NEv6Ch8oRd8w4kuzn12fa23AUCwU7gB4zCC0dChVDKN0XQjBaQNU8UjCgFQL3XVmdVTHd0nkO6BHcL/+q//Wju0D3fxVBk2YJCll0cKZStYPwVVqbdmlFnzwiPV+0aCqeGZzhmeE2FeMH12CTkJOvWV4FYL55W58yLv+ON4zItBz5y5/Y49ZuS2ammUp2PU5GuFeibUES9MN9plTkmavvXRL7MYOkOOsHRS7dMxsyPinZD0TLTXed7eh8H4wTSEVJnKSsULRgc6uRG5GZZUqtqiTtojuFZ/dc58ky8ZfgoukTs67cpQoDf/eLzccNFEufHiiXq84tyJcuHpI+WH376n3HRVaNdISzHXThkGr3b+KspxnBE9vReGKxR1n9d9TFluQP3S0GuDOqM7JWp0zOBpM564vz7ApzSi8qAITK2TWYaKc4FOypanaXi8TBl2D/2S7so3cqOQLSdmvGelk89Pt88xiFkNO0UVpxEcI9Xk/Rll2YOrysjSoGF0s5F7xspNP7qnXHf+feWOH60siy/vldt/FLS/YKycc/pt5forFkUdZ5at5m4bKjOUXjw2e+bcst3W/W8VtCXneS1U2WJq4SEX1XHvK031b3miz+MFpwH9LXVQnNILKfvoBK45CxwA367hmJvREceo4aPpdCNwTgNlbLQLaIy3ykdPfPIcg2fGw9Qzg2iDoDwSZqDoI/XghEifkKf4FvTIWIw8NdNMWl9QDVT6TkCY/dA5DH30FfdCbHoreuWWy8fKZeeMlKvPHS23nDdRbjq7Vy779pJy8dfvKdecs7Tcf08kxd7IzcBnToywZ4eVk2uUVm8wloDC/WCGxLHPrwwwHH3IyBlNyWIOcDh4nGszOWQQ8Dv1j4A3jhnviBZ0B71uU7O3arwcYHDCQebIeS75SY97xvN4krZKGteWujh26oVPgC/iyQxeZJ2nQitniIP+ZhdmDs0rs4N2s/oqoIyEVzCyIgZTQ7PLNjvuFCom0i0Op/qGVeXOC5eX+68OxyvC7T/plSvPGytXXbIqBj+9GHSG3hszxxFyGnppxcjyaNtYmRUEj/Fr33GJKgSrw9GbpHutk4ArAoQunvzDR/XeZpu+niXPZuToC05fxtHFeIRm+gts0JkLQkLBqRwGYWCGZKB0jtMZYKr4wZCCmIoCsn7uEyzKRjpemV3Z0vvkqanhnDnJY+a5Nrg/snJVWb5sRTgIc8LrjBHRCMMaHSI8+5XLV4aQEDuvic4N9nrIiGpJKJr7QzjGy6yoUx1thEaeOXM0vM9+B1utwdeCbHMeBbyh/BYvXly/G8GIMUAMCeh02eGlbfNo6floA5AXHRbdQXlg7ZQCVj8jBQbOtKR6J+SR8pZtc66eiSxHXBsf5Azml3LfVaPllBOvLSf923fLd796efnmF64rP/jOPWHYRso1P7mjfOOUbwSdbilP2X/bGFGMlhmzI49w7FbGCGNldO7ZnIQwXhPjs8r4hJmnSe26FmQ9HBkbbUiZNEpi4LTd2xmcAjRZV7+R1yCPnCc9QZw0ID7lWFzyGfAjX2vliHoLSj0g805699f244blPdMOdYko6soTjvgZpuF5BcGGsZXhwIdS1Q/uCvp+/sQflVM+e1b51ikXldO+dk0589u3lnN/eHP5+qnfKeddcG44nPPLQQfsXWbNjTLCyx6LrM16zAijtGzp8ih/Vhi5aANe9tkcDYuTybUuhjQiah1rZQLomO0E52hvGt3sGIXJKWOgtM+9Nr3nH2p7fwq9jQMGjgLmWHAEUrbdR3PPCenYJBhSe6LMGnEo1IEDYkRv9OgZy4LyhWyLfFueW0eviHZTEbW86gKQMQHfQ6dMBG3idGzxRPnBqXeU//z4aeUrnz2vnPb1q8oZp15XrvrR0nL1j5eWr59ydrn+lhvK0ceHAxY2Z2JitKwIoxIaPwY/3gRbEXEKNBjp1Wn3PozUDaSU3y93Ri/KnOSVgZN9SvoA3ZttQQf8cLRMxdkQ3/aB9ryFdIL+Y8DCsRM4jukgZznom/3ONX5kf5G/mSxvSXndPr8MTTfqG2Z+fSKBg+m5wXpMDZTQl/Gr3/6oStQhYuOCjJPjGy95sJz66R+XT/3zWeXLJ19cvn/aTeWHZ9xRLgt+/ODM4M0ZZ9cljD332r5ss/XCyDH6wYzhcPSiPdEntCAlvu5xsYcjCsKWOmuxurNIIcQTZKWeq2PQUMUC+MKpsA/GDF9+AZsTbL8Q3tmnZBZv3ZrvEQJzMAaRVSg9fnB0zcvRGVMAMiSz1xamSpNxjusTwJHQ2kzlVTCeKbR5IqaNU+5Za/Y6GCHULtBOCiQ7xFoRfLTeO3tOX8FU9uHlHP/NLXMXbF3mhSIartO8kwkC88LRmDPHbzrYODc2OQU5EsqC0Y9OVTXquqGu2oUHWX+8YCy8X29tl1I1Q8PJAApPh0l6pOHBv3Q6XE9HkBekUuVUUMA5FWrmwrof4aVoIZWKemX75CVO/QY7unst+vcj3FfKOafeXj73ie+Vmy5dUrbp7V12mPm0ctfVc0LZXlN+/IOby7zRncu+e+9Xtt9168qa8RUxUhyLzjx3fhi94TISynTFqjDIo0PBo+ygawdetE6FNmSdjV61U7sp2JxJa2k2VUg6ylMA8S0yrfKksXnOMoyyWuC9+qFlO2sBmWfW3z4I6LebTKovJ8NyXDhjYYA4F6ZlZwSNhucPl3tvHCtf+OSPylc/e35ZdOtQ2WrmPmXOxF7lzptmlEsvvKXcePWdZXhibtl6dliyGMB7tkKzQoSjteGgzAuFHIbhp1k9ea0ulh7N/oUyjzjT+OieNEBv10l3NOcQcO4sxTkakZF5PNBeeiNp6xx9OGLOyah0gnxNEzNKnnffyE9+gnOBc+85U/eMljr49L8RNt5YjqWH7Buw2dc0dW7wVEa2B9QrZaU6RMGXqiPq7T49+o5F6KFwgu15qT7X8lIuv+jB8ql/+2a5+Lyby8JZe5S9djqyTCzZs1xyzt3l3LNuLEvvmV+2X/jEMrPSPnIaDnMWtB/mTId3MqvOwJqJDYeJWqsORX+cboa2lhmBYU3UagXpySJ9o84pw2SOA2WfhC+poh8k79rzNq62O87RIvkryJdM03/Jb7zDG3y2DKkfMJjSg3qBZziIaA9obImAjrIcMtWSzdqgfmowHsWQS4RgD+zDM+l35zVj5dtf/lH52ucuLLdeM6NsO/uwMvrAXuWi798b8VeWy86/p4wsXlAWDu0UNmJe7RNjD4bt7YXODgcjFFJZtYKeHqk0NoMxbHmxdsCgSy0dnfWdyRB8qU5f5U/cm6QhcLYNPPHIXj30AjqBDSG/Gdfn3gYApmGiSrTCkox3jiGt554h060tTJVmfZ5rQ0IdKAV7KmxWseFH506Bcs1TQ1S/XMkDTqWRkFb56wK6zAwOo8n4suBbMNpmmiW3lHL9+SvLLRfPLouumFPuv2oojqXcdulIueGCJWX5ovCsw7ngjU5MRFuj/jZJrQqJDPcscn6oPWtDtpuw6Ex5DjxR67c6jzVOAQiO+mpj22bI/Fq6PtIAaKg8Bo4njB+USvJC+Tq4GQsKIuMEz6ZxzvykzTqnTKacQF0rtvwU15ec8UD57pcvKbPGRsobf+6Z5dd/6+jyjj9+cnndG/Ypu247Ulbef2t54bMOLS974ZFleKttgnfhYKyMEe1YjBBmzQ8DN7uMDo2U0RgNRN/s99d+MWuFegnqqf4CUHhGBeJ1WvxKGWvpNlXINEmTts0JdMqy0Vw6yx8cSzN1pnuBfDCm0hv1SQ/qleWpa8pR3VDZ64+GBQZdyf3g/77isgmTMTvtG5eWU792dtlq3qzympcH3d/+wvKb73huednP7Fe2Wrik7Lbz7PLC5zyjPPOYp4YDF49DVCFsWA0Wn4eHOLmTGzWMxrJA/zVKs780Egp9Uoyz/pByAhwL1+iRHzUzW0Am0caGT4YerexVyh988iVNb3fkmzmO4jwvTaYVn3TOc/l7No+ca3rJFDyaK893FKz7+4AcPaRfAtonX0Ddkx/aV+XGSLiaE/H2PYT1Qgj8EhVJbrji/vKFT59Vrr7y6nL8M59WfuO3n1/e/q79y6/97hHl8MN3imR3lKcduGt55SuOLluHrzcULJ4xK4z1/JCf2dEXwqDNGZpfJ4vGR1cExWknzoXVf9wnF+GERAcZCj5UzRXFVw5gW3g49HEOZkA7BTo5dRYk76RrQ8tT10mXjHMk6+IzLs/Rk77BI7rHG1IJusRzlmJT94gzAHLN8ELLh7WBkz1ewggMLS3DMznf4dxGvD2V/MAH7pwoF551VznnrCvLwrnbldf+/PPKb/3BkeXNb3t6efaznhIOxIqycM5w+ZkTjg8HdI8yNwYzY/eN9ycNhcjHXpkyOl4mxkN3ROSsiBieaa8N/isIgs7x7EMh6Ic3lT99HqUs0UfaiQ5m0LQd0BntOMur4+r/GwAp3AjtvA1tR8CcwUBRTRXfhjWlEZ8jhvUJlCZFYo3VupHRoR3BOjvFonPr5IhmSo4XTcDVn0Al0RFWp1iXYOleBGc89KBNgmVkRrnjmvHyzU/fWv71fZeV/3z/jeWzH45RyseWlC9+9M7yqQ9cXj710UvKDRfFsDoUMaEZGjfVNSf0wnAZG++PyKri7HfRhwX8yJGouls39FEq65sUIu89DYd2oweaoXUacfcyiG+v1zfkc0k/m6PQ1M5se10oeHVFc4om5WgQ6pMKA1K5SD94r8ZHHqNjemIpZ595XrnmsuvLc5/19PL633laedorS3nK60p57ZsXRNxOZcHse8s+u/f3vJR7IoyHMh1dEAPzoP1I5MWwDS8ts2YHbUL39Gb2xwXrgjrigaN6JlyjOfqTUSODvD9Iu0HZX9M9vJOn4H5eg/y9GWHnN4MnUK4cvRwtolk6ep4H12RffWuDVdGtGD31yrwIc0IyGRVyGqPJ6nhE2sgm/LVyyblXlwfuu6Mcd9zB5Wd/7inl0NfMLocG3V/00u3K7ruOh7FaWvbfe7uyy4HxvL27MSBfdU84ccuD3vXNqpDPlYuDl9FB6uxIxGFzZbX/qDmORRxqIAchu9XY9qFdrXxQnmim3WYUjMaM1MwYeBXPNLhz9DEo4YgZVZv1sx/CtdlQcdIaCdMjZkHdt9Ql0DcCZ8E9/c4SiPLkS+7laXRsJtF9fZK8cPTQHdQfPxwBL5JP4gSGos+YVUEGjtikgfEIIxS49sobyllnnF2eELrwjW98Rjn61TPLPi8o5QW/MqO87FX7lN22X1522GFx2Xe/6Ae7xGMrx8qKu0Mv3LOyjC0Puk8attHlIWvLVwRPVkW5fQfD21hDEfqvUAZnmpBsyn6ddYaUXfrATE22a1DmybKQ5yn/0jiXtyBf15lOGsBzNPWKpTiDSn3ATIZZa8ZUXsqXFjI/qPIfkPfaobEaHjLcuzeOd5dZMw1mQ7DlpToR7r9zebnk/OvL3bc9WI496ojyul/ZvRzw6lKOfX0pv/DGQ8pBB+xQdtimlKcdsFPZPvRSb1XQeRzfw9m/I/TR/eHGhRO3IOg2x9sgwfPxsiKyXh7HGBxHHeo4oNGJtVq6j+NkqA55vzNVaDMZbGWslcPsQxtsz4VCVQJDMMZUn6k/ldJZTfPlBh0GS1wbcppwbWFtaXi5g/czLo88LB1W/QiNETsFq7ObeqQUtMPoQlrraTZa5ShP+wiSNI4tYdcE9zkWwpyFpdx7cylf/tQV5UsnnVZuv/Ge8sDdS8uVl1xfLr/4unLdFdeX666+pqxatqTsf8ATy177hSSFTIcTWiwtczJxf1YV6v64YF2o5U8Kv86qE2WncE+b0INjZerPpjQ8M3JGA05WKlydUxwetzTO84cTPJd8Uaf81oPOTzHr6Iyc7zUwfqaZbU7MHcwttAHEC8kTxzxP5PT4rCDo+d+6odxyWdD6oL3L4S/cNUgbaWNgseL2oMlVS8stN95Rnrr/U8qTD9y+FLOfwcOld4ceiOPMuZF2TjgqE0uijDkxWODQjJfZdZPcuqFeWVf8QQMd1lsGZpDQxvom+UT3QTon/fJan0LLnGZnrPQ3R3H4iK/gmuFUpg1plKt7DBtDql6WBhhDdbCmytlJuK8POPa1VUQ6WK5r9juQz9WGP5ziiaDtRMjyj867udx54+JyUMjaU5+5Y91DxOatvH+iXP+jleWaa2+NMvcrT3rG7qW3sleW3jJSrrr0hnL/ogfqSGrOtl5Hx9t+P+j3hUmZMBrkgNCSOoyyI6iq2b+UFUgeADkjc5YmvJVkPd2GZ+/x0wFkjxPu7Q9v49gh7/VTR/ekRydv1Xg7x4Za6Vx7hU8614J0eW4JxD39zrU89QHOij5BB9kLRW+hubcnct9RGr6UI+eOo2MjwQHLzxhjz0sY+vpHiYR84hmDFg7x7VfeVy696I6y47Y7lec+f7+y9bbzSnkwbke454aJcuWlV5etFswrBx21f1nwhF65+crbylU/uq7cdv3dpTcyVLazXBD5eKV0trdDZuGLcpGdYxGhXjWoPOk7Pzamk//UrfQs+TVzzJGzTGjPhXh6J/W442Agw+ScfLt2FOgv162+4WCjsfRkShn0PMciv7Oh/+gTBqJ4ytGRl9ko/MBbvKtNCrqvE2Szx/HCr1nBlZDdiVnV6Z0RNHzw1hXlB6ddGwOeG8tRh+1bDn3GrlX/WxpcfvuMsBGLop+vKgcd/MSy+/7DZea2kU84EctvHi83XbgsBj6zypytQw62Gqobbs1WrJxYEZIQchJ9pb9EheoR+iz6KWQT3LL05ZIsoolZNLLqjRl0QOvPTv5cB5lEhxlhEKfIds1Yn+RJWEbA2jkP3Dmh5xkafRIeSpIAZYeeTqytnurnPqHMzT06JoFlrIwS8seHCBpHiFLxoRqf14V2RKkTE0pHArnWsiP0os1GTrh30t9fUv79I6eVrWZtW37hla8sO28zo1z5o1459+wbyh2Lri7b7TxUTviZw8pL3rxv2e1Iw+H4Z905Tifmhvc5c5kuGeIRQ7o6Ily7UGs7AQHOhXOC4Vxb8ITg+LVLbdJeNEIrxg7vtF06fNPm6YK6kQf1wQtrmOLIkKlihlW8NIyczx3nplM0J1PqQ1mAtImWJymfMB4OgGUR7frS31xRTnzfGWXrOcPl19/xmnLMM3aI0UApp526uJz6ldNjxHlH+aM/eXE5+o17lbuvv7N8+oufLxddsKw863kvK69561PLjvuHkpq4t4xyKGLUPiv+hu3Cr2ska4Z6p2FAY9eC+puatYGYcccLs2vi3QftypBIWminPB3FpdLOtPhHGbiPtuogjWl4/NUHGNmsDzl44QtfWL/twrnLOnhecFlfkw/yKqE300V/um0oaIHqdTMnpTY2LxyFoFOI7Bc/dFn5978/v+y6wy7lV375JeXgA6J/hTE789vLyylfvqCsmFhcfu+PjijHvmz3GMUvK9///nnl5tvCSVp6Rznw6buWV7z+uWXPA3coM+1bsnBdKxBtVuBQOP11nljc5GbJySRC0kNAj9RFPlDlVXOOlg9ZkcWpgGbkjZ7Ql9CBLCXQE8SD/NvyBpE0dY8zZ+TM0TdjivYUuoHPH/zBH1RZ8a0Le8BA+fIV3/bLVaPLw2CtrNPhfbdiXoQ5IZdGKpFgcqRMhVx5xqLy8b87PRyMS8sbXvvL5RUv2q/MjawuuaCU0795Tjn7+98vL37xkeVt73xuWbFwtHz5G1+I+t0afXasbLPD1uWoYw4vx7300LJw53BKRiPzoRiNc2roO3s7wrmo0uc/JKmBnESwzi9doKURB1dfZ7zQwGvVqbNb/rVAb7QXks7JA8hn3JePNBxr1+hI1gUDG5vIOTgJv6qqT6qHgdi73/3uuoziJx/8iCLaD9ZnakQdQv/oMxOR3oevZoUToK/wM+66YkU56R9/Ur5y8jfL4fsfXn7rbS8p+xw+VB68ppRvf3VZ+exJPywLtptRfu33n1uOee3MMrxXOIAXLStn/MdPop/cWA495snl+NcdWLZ7WgwEqpO9tKys09+y1xfMKM6ts0npf6/mCyR/GjFlxz/84Q+Xv/zLv6xvGPqNIcsk3miyuZjN8B0o+/c2yMxFMhGTeIcEgDAYBQg8cEacQuP1YKrjdAX5rS1kGt4pJakuCGQEoG4MKU+UghVPsKSzucqIQjyFklPZFLQjA52CvEaEEM3QycdXlNsuv7t85uNnlMV3zimvfsXzys/94h5ln4Pnx2hlfhldMqfcevXiGCVMlJ//5SPK3sdGZ51LE8Tz86MMwsDDDano9Xxki0LTMddePt4IhB9fUgmlQtI2MwRGbZwIIy4jLW1DC3RwRKep+Odeng8G99YWMo1X+Wx+IytGBqaMyZFRnI2c6G1dlKKxjAPZrmybkNd5H7LT5/XqL+LF9S7zt43R9Mxy6SW3lAvPuaRcd8Vd5dzvPVjOPf32GCWvKsO9bcuznrlP2f2Q+WXZg0vLhWdcWi7/8fKgw37lwEN2LduF/ZnRWxl5ya8/IjBCWD2KnkRbrxboLZ7zkGlyLZ6s+qYBmgzSa/C6paPgOnnleTzEM3HScVgsh1CmjGjSnVGjLPDfrB4nW530A89nG9LRjJZV5SS6zqqFYa/TO2HB6uiI7FYrhgcMSRi30HHzRrctD942p1x7+aJy1SV3l8vOv79cfOZoueScleXexWNl24VPKMcdu1PZbftZ5ZZreuXOO8bLkc/bvSyOfvqTi24ts2ZPlP0P3KcML2DA1ClCv2pxZLj6y149noy6MeAhB2Y7QDtSBlJ2/vM//7Mua5iBoChbRxW0OY1I9iNpHNOoOc88IcvIOM+1+sK1AOIZNjNXHGizJAY4wBj6IiKFbtYj4z0j3yy3n5e2uWkaHC9cMCrCACL5tgsWlHnDc8rll9xYzjszRs0/ua/85Lwl5fRvXFtuvemuMjY6VA556v7l4CN2KkNzS7nvnpVl/yc/KQYmW4UjenOM7u8rTz1wv7LN7tavEDvaXmdMlBb8CY+vGjGXQrVqfe+GYzHq2w5BW0iaW1ryBUyy6C0Nsxfklg4SnGdor9kcMk+vp6yT20wn3n1yLz7Tca5zn4slLINN9+gaukcas1gcT7zAB7MbnjGTxdFcO/oEqH1iPGgSoS7TVXlaEUcDg+Hg0KyycOa8ctcty8pVP7mpXP3jG8rNF60sZ3/7vnL+D28vdz24quy5y27liGN2Kbs+LUi5dSk3fvv28vl/PrdcfumNZe8n7VP2P3L3Mm8XTiR9GHSO/qBkDn5/OX1W7ZmrpbDljQBxZBM5zZwLr/OyEb4Yq3+AWX5v0rCJ9AM9vUFmLoBwM8BGoY7Z+TzvWucDcYMd95FC3sqF7MBrg7V708eCOpj64qWafmNs7VAmVDwxDsZ73/ve+rlpU2mMLWLrCAwfgZWHDp11mAozbKCKzrZq8dJyyXeuK+//s++UbWceUd7xey8sT3uVBBFC4V76ocXlH959UZm1zZ3l3f/8krLTi7YpvaDlirvuL/csnle2XhidYhcCFY7KUIyY7KyqzsXakUoP1F0b2vqigV3pNo4xaD5paxqQcHk2R2V4CGtr68MFfqGhMsiNt3fsuWDU8MEIjfCqky90ejXYBlTOoWdTMbfQ1pQDdZWmlQtxVSmzQfH40ot75UufvqSc9u3Tyujy2WX7ebuWrWJIMLpkx3LvncvLb/zG3uXINy8sY3NHylXn3Fw+/6kry06771te/KYDyz7HhxHr3Rv5b11GJ0LWgzSzhqLzTtJIuRkgjQ2I02Zyp/3qieZ+WdGGQF/9I4fSt3nkEdo4eQuAb8kv9E3jk/0SKEngVFDmpj5NO1OoPhhk5sRsFkXrVx99N0Bembd6941bv3yjsDJjWeiqkM2QyyGj5SBIVXA0WIxieyOcqKEyce+Mcu154+X737yyXHT2lWVxXO+y9b5lqzk7lkWL7i/LVi4vv/vO/cqhL9quLLo9nLDIYc+jSvnSv59fTv3GOeU5L9u/vOYNIRu7hGxG//KqnY/OmSIuMxlUX46MvtmbH+VF0aNh1ONYN5ROQp3RRHssEennFKmP5vnlS21zL2lq4IR22g3o155LS1bXBPfxWB59uvV5qg4CnWTm1D3fznDkfMrT9LxfYTaaJ/++uaN/AF5kPp4RlDMWNKhvlplJyzc16pA5aGFmLUL/td44vXOifOPLl5ZvnHROue/WobLNnJ3LwuF5ZeHc3cot199fjn7GXuUXfmuvstWh0dYVEZaVctp3f1S+8o3Tyw67LCy/8buvKnsdsWNkFBXKj8x5BYIxCxngxLjldMZMTgUehWPVGy4jq7zhZW/VrKpj0ckoWV+37ODcAE87276c9GuR9NWfclYHXRJoKX/8yueVKa1ZIw4cuWcnfBhNmWiN/maOfI0TT2zk9eunnPS/+Iu/WG1w5Z18gKyfOHUbHfENCv0m6uSV6XAAx8aW9pcgxsM5WxXydH8pPzzttnLGKReVy867qYwv3brsvO2Ty3B4Enfctqo88Unblzf+9j7laa8LPtxxXznloz8pXzzxqqDlUHnlG04oP/Pbe5VtD4ryRyL/0FmjM5aH428JP/pfyMHwjJDRcMgnwp9DmVlMcZyMR1uja9YPPLq/ZFn/I1q2CGgr+CkA326hpzh/aIJHZnLMLG+wPReAqBjIk3PEZMG5KXihjZ/OkEp6bQHzHdWP4DBmdnirN+Xi/XbeqTU1o2dG1khenaXxvOcIH0XbCk8eMzyEyY4/GoKzbE654Kyby723jJQ9dt+u7Lf3gjBo42X4zpnlkvBAf3zuTWX7HYfK0c/etyzce05ZcvuicuG3Ly1nnnpPuefO+WXO8MKy9TYxOp7nffFJRdkWNQXUF9LAZIfLOhIUO9UFgvK2t72txqOTdqOrID26pZM1HUFe8kZbn+rFC0rWOrOpSB9v4fBQ+gyuOohLxcpZ0j5tw49sVxpO+WY7pau0iMuazog3FOWc7WaUQ47crRx93NHloEOeHF74weWAp+xVbrtlfrnlpiXl4KctLHs/dU4Z2mVm2WHX7cr5Z1xZ5s8dLgc8I5y9PYL/oSh7K+eXmRNzig8T+WhRrjkDeiuXclGuOjknS+ir7qAtNtTazEppmXKlVLUreSCsiY6ObRp5Z18TJx/n6qPM3EOBrpSluqH5q1/96lo+59lskXvS5ldcsw9Jb7081FKdTZvhNenqBnhTgGMRhr2+sSFt9BV2bVV/tDo0e0bZYY+hcviRO5enHvzE8rSDdyzHHb972e+ABeWu+28ot9x2eTng0O3Kk565U1mwZ4lRcYxmv7O8nPat88oue80qr/3FF5atdo0yfC2oFyN0r2qPh2H1/Zc6UqNMo796VZLCJAMMXHiTZq7QAA/wAt0tRXFezZQxINqHptqY6dBP2qSfuETeXxuS946J9hyMhM0oZTw5li99g+76KGfPW165PKh+6gX4rH4+yjRuE3gYEh/o42B4JXi8tzSM0PK4Dn5Zk4/69IJl3v7Y75hdy3OPPbIc8rSnlKOO2qcc/+yDysL5u5TLfnxPmR33n3rUjmXhPqFHnlDKeaffUN8wue++B8rTDjm4HPHsvcv8bUO2VCMcvBk+D6kv1Fm8QPwX1arwpVCyQi/6mYNZ4cTQK6mfOLkf+9jHqkGni+xnIcfZD/AmAx61IeVdXoP3BPHyEZRlpsO5jbqWo8xaWPrgXJodMsNhRpt80Dn2Fqgro2vp3/Kt8uxDwFu8QP+UDeegLPeWLFtWZoUTNXN20H2GvrKszIyBZ1AszsM+TIQuCDHa85Cty5GH7F/2e9I+5YADdwkaHFr2fOLO5cabHiwrwvE+7Bm7lt2eUsp3v3pxOfOrN5bxZduWXXbeo2y13cKyz2ELom9EJiOR55zhMhqOXqikqAz7NSOclHC6x2aUVVH8RPBptr1jgVUrV4RsjNUveHrAt2jMHJ144omVNr65Y9CReiHfmjKz5INy6PtQj9hAQNBNNRAuRwaVwSJcDNlb3vKW1RtzdFTTxDozByM7unhxiMgAOncv70NbVl5Xl33ECKiUPQ7asZzwomeU4TlLy+dO/kL5t7/5VvnC+88pH/yD08spn724zJy1quy6485lxoMhaDeWcsVpV5Wvn/KDGCmMly+c9KXy5c+eWe67K/LDxcnOui5kh0ol1NYPxJu50THzNw4S2igk2natKzwcGMGDDW1vfOMb6/IHHiQYWXWz0dEGq6S9OjN82bbsxMqXJo26zk4JSD9ruD/aXBU8mRiOegb7JqI/7fzUmeXIF+xQ5mw7t1x27dJy66JryoqJB8p3zxgpV/w4HgiH3+bubbbaqcybv22ZMRYPjUVeMeKwll0H7pGXTXTkw2wX49AqOnXRYY2U8EQ9xYG0H/3oR6vMeUuJIku0dH20QblphPQDSpNy5FSYcqc4wfSx6U4Gz2uYZAQ8b/Sm3o7LltsD5G9m/M0J3Rj0MAUf9IgiihdzRlYGH8ZHysz5kS4Ua9WlfKrto08cvaAc9aInlO3CebvxrhvK/ctuK73hZeU737yxXP7DGMbNK+Wm80v5+le/W3bcdadQZK8uO+22VQyMI5MYCZr+nTk72jSXwa9VDIQhD2b45oJifIpjxcql5Zabb6ntzpEr2PBqjwXZMZBg3NHAtXRkCKQnR2k4phttvtnn8Ek9BEtb+oVNiBwh09SAHzlo8xzZm+17EzE6rhvJQ2YnRaxuBJ81bIYn8p+xIpyBB+vRzCm/cH747Ac9d2HZ/SkLyw03j5Srb7i5LF25pPzkyiXl3B8s7r+9Fvkd94J9ym/+5ivCsTiy3HzzbeXBuyKPqH70uLL8/sgo6u03Z0ZWeEMjntEvghGCb/asXLU8HKCRMncOp6G/5wit9QsGy9syptn1Af0G0H+6AlqjF+R+L8sePhbHiJJ5IAeWPdDXrIYZPqCbGFVOn5E9R4OcyEdQhvZkmxzpge223SZIg88GP5jiXGcQGgTf5uxYysEv3qEc//p9y14HRD3HHygPLL+jLF4xWu4KG7Ak2H/lpbeX2+56oIyF03DvAw+U2+9eVFbcHQT3ufZJtT2r/hwB4tsvN1yWLl8R8jQebStlwcLQl5FuVeTpY4Czoh+NjkThdVmrrH6d2pISXZC6waw+eljKNtNJt8IGnbnY1IHRkB6wtTSjAETKzu2eqWLLJToyhUPYCA0QEkhj5joVQIJwJWJ8FyE4GIZsxpxZZa8ddwlnYWm54idXlKt/ckt54M6hcv+dMSpaEQpxOEaF84bKMcc9MZzaWeWH378uxLBXXvdrJ0Seo2XlimVlq63nlp132qZ+W96U5rqgfuoq6KjawcCJV08zBpYdtNGUq6UhnV17HKXJNqNR2851YX3TSkdwzVIQ1lQo4B5DJ46Rs6HKKFo6HZpykCafYfC0ER9B/d1vQ0Uch2MEbfS0PGgzb4dZZWR5r3zrmxeWkz/7jXLt9UH7GIotuv/esuPO88o+O21dLj3/wXLWabeXpUsWxkhhl7LrTmFs5k+OOCYVeDj9dZrTCMBnp1NxKhf9UgElLQXLQDbV2jhl5OSHqchlza+RpelAtj+NJtpy3PSB1qjiuZEbUDDqaGaLYnWPIXMcDkEcHQlZql8dDFpEmBiP6xB5VdetZs40XR3lCROUV/QK685hh4bmRXlh47751YvKf33ym+Xqq+8ro2MLyt2LeuXBsGdm+b7yhXPK5VfcWg494vByzLN27X/7AnuJJdkMOqu3T16Pji0LfyNGYdFMdarNrDLMGe2PkPFE/0cDM0V+cdcbIX4nov1ND31G2jTyeIFvqSumE/IX0ilOGUkYMRs1GjHaG2KvDH7Udkd6z6mn9tWfEYj4WSHfZuDrBFMYMh+88pZC3IzAQQ+5nKWfD5WV964osxZQKEPlqnMeLCd96vwwpteXe+5fUZaOrioz59oAuW35yUU3lrFl84MWW5Xbw8rddudN5dBDDyi77r2wDEUXVL7fgLE/rL7Rg9dR/siqGJyFJRsaGq9vBw3PnB0OBiGhQ/uDH4MHU+/2OdgsaGkiDdd0IvkLZB2t7THi0HDiUndoC7p7pdgst022lmrF6yuWsey9oIMYXzoIL9zPANommDkILoTjHXSZ3P+QM3v9b7MEvyf1yIz5ODGj3HLZXeVLX/heOf+Cy8p1N9xT7lz8QPDk/jJvm9ll/sJtyvzZ25fF964qd957R/iHS8vhRz+h7PrU6Me2gUTxIbGRP95HfaIcvx2CHyuWrSqrVkY/p4/C4fctpv6P2+HH7LCB95d3v/vPK084UmZS2Qj6lTN+8skn1zZbLqU7YIt2LpLxhIkgEBBeqU5MyNx3Tye2YcUomSDa4MZ7o1w4KARe/FSKRpo0CNJU54JS5SaEhzhnx9nliftsX/ObP7Rb2X+/fcszj35S2WHH7codd4Z4LF9SXvbqfcsdd42Vc8+7p+yy53blub90YAyc55arr7y2jA2FAB2zb339qyrXdYBQp7HQabJ+2mADH8VqM6cfZPN5bfSgVKXPtM5rW5pOuT5Y3/RoqFz8UBY+eNY5pekeZWra0siGc0Sxcg4Bz7RRvHalMUjeZD2yk7uu6+8RHf28On689uXLR8stt9xRP22815P3LAcdvFd5ysHblD322bosWTZRzjv3ylAm1wdvloXxCodkYSk7bL8wlGVkEvwwchuPofqsOf2pWeWnLKSsCNqUxhn8tos9L9LajU2p5vPTjeQpGqAV2lKgScOkjzTiGVvr0TaZ2mtkJGfEpn6rVo3VH1GisEh6f1PrJM+j2chOb/pwHE9iorcynIr+fqH67QvdIkgwETrthmsfiPxLOSQM1ZP23b88/Rl7xMhqbijVW8t5l5wbtJ0TNJ9Z7l88WkZCCe78hKiDjc5RnqUoCrNHM89YFYo0+nkUTIFbhvFDgOqmPeiu3Y5+Spsx40RZP7YsmnCfHOIB2gDawIbgSyujyk0Dl/xQZ7NMDJmNnzYVMnaWcd3zTNYPC3xS2uxONLvSp59/yGM4wn7xsi5PEL/alnAwwuebGfnMGJ1RHrhjvNxz70jZfudtypOevGs4dTuWAw7brgwvmF3OOP28ctYPLizX3nhDGZ4zXvba9wnlsGP2Lltvqw5RZvSr6sxE2f0frIvzgLcjhsLJnBWGDE8YttExH3OzEbRUA25/BSPuLSnr/ORsQ9AanQR5k2NyQZegozj6D5wn/S0fcrDN8rEPAh7pG2YvzIIb8HDWgS7yvDT9fAwyQ6fpI8GP/g5oDBDIadNOrCJy4Xvdd9uScsWV1wStZ5c9wojvtsduZYcnzC5PPWr7cuTznli2326ncvdty8p9S+8Kh2SkPP1ZTyp7HLxt1UfRnetMBSdvznDwNv7qD5NF+eTbTxXMnjNcnb6R0XAuo64GC/fcs6j87d++v/4mi+Uhew9tqtUO/LEfxiDvt37rt1bvi6MvtmjngpJAoER2aNA5CRUBI2jupWdqqtQaJyE07SgfIY1DC0RO1PzND/s1QmtfhDZGDvP3mF8OeNoe5aB99i0HHbBr2fOJW5fbbi/lwovuLivDmz/s6fuWO+8ZKlde80BZsMPM8vTjnlAW3baqXHj+ZWXedhPl6S99avSQKiN9QVwLtCnrm4ZFGykpHqj1TZ3C+qZNOe0zoA1olrRq27cutPRdG3TgKuxRjvxdp3Jl8OSj83IwvCqJJ5w89aZwPac94hiKzAPauuNxKgthIgjodyrmzAmZCGdheNZY2WW3HcuhTz+4HPPsp5QjjtqtPPOEXcsu+ywsD65aFCO4e8twjAi22y0c0D3GopNPlF332KrMXhBWct5I3ThVy60y1i9D+eQk65P0c099GG0bJi07WO83QqC4jBA8l3WfLmTbM2Qc+qdSJR9ZT06w2Qr1M5tH/o1UvJXCSKxcsbzMXxAKNAyHYP8FZdYftUYGEcZ6IxGsMcuTIzI3Cg15jO4zIxy7mVvPKLvEiPHQww8sP/PyvcoBh+xcnv2yHcs+B25Xlo6tKFvtMFSefNDuZXj+qrpUtf0uC8pe+21XZs6blJcIVLfZieGZkZ+yq3a2zm5UTB68svlQnzVjYSOatX2vE77pTW+qMpd8Ind4l8YB0Ait8nq6Ie+ke/a/dHLUW5yBjjrbC2PtGx/yA3Q5BT8rRqGq2Au6c7jqG1JoHfJuGnxcH4g/v82CbvbO+JS9vlBmjZdtYwC0/yG7lMOP2zXCTuWYE3YoT3vGwhgtzyiLR+4pdyy6MWR9WTnkyCeXZ7/g6WWP/edXzo6YiVKOsv1FW+w/4uSYrcCfuBttmlFWhcO3MEberu1d8CNj9jb4LRsbmS2Fagu0svpoIR88RlP0zLz7dX2oHzhHc+k4cJwIhlU6y7dsAX3kviUCSwh0j1lVDjt91OpQ534lNk773SAR177LYvMth68uSUQ/qm8EzumF7IdT+YTtwrl7cjnimQeWZxy/Wzni+N3Lwc9cUBbsE3ox+DZrxuyy/W6zyl4Hbl8OOnKPsn3YF/3OxNCq0ZWV9v3l4Mg3HEvyO2furOpY+KGzEb9UHPWYOWt2ufmWW8qJJ36yvO99fx2O0naVF35XyzNm9DkWHC1LVmaX6GCochv/PSwEIzabkO0J4alhKmR8ELL3N3/zN8Sgd+CBB/Y+//nP13gIoe+Fkq3HRFtOCGgTRiNuWSRYHKniPA4T98Xpg3G8o9e793u93mf/54rerzzxvN6zy2d6r936tN7fv2RZ79Nv7fX+6mVX9T7wS+f0Ri4e653+kZt7f/7Gz/c+9/54QFarfrrMNQV1AHUNb7rGQXTkXiiqXhiS2s7wymt8dJaaznPSus5nsk2Z97rCw8F9993Xiw45edUvK/NQh7z3xS9+sReKp9b7d3/3d3sxgqvxIF3yRhtC2a5uP8hPGjweGxvvrVg53lu2ImRhbHlvoqf9d0WIcjyyIsL9EZZEeCDIfdtY7/7rFveW3xQycnvQ867I44Fg5ITnbolwcwSM7cuWkGU7X7JkSa2T8sHxc5/7XO+QQw6pMvbyl7+8Fwqs1hnUVTseDr3XJySSDspDs8H7IM3ixYSt1/vUpz7V22+//XqhJHu/8Ru/0bv++htq/MR40GEVIgloIaBnPB9hNIi5fHxxb8nIoqDMgxG3tDc2PtZbFWRetTjKXB59aCTohL3o7XFkDJrXLON8WRS1Cokn41ZFmomVcT5BHlf2RsdWTNZdiUHj8Xt7K1bd31u+bKQ3OhLxk82SRnu1hQyFwuy95S1vibZcv/p+8i6cu//Wv8VnnOvpDPJNXqeMgHjltggj13v+859feRHGuPeFL3xh9TN92V8abV/cW7nigXh2cZCJMMujL4/EcizoMh59YGRlpF2yqDce/KnEH78zbuoHFFQwJfpI5c3SCPgSWS0PXiy+NpLiF3GVNX44V42g98jIWNQFDd1AM+1YEfTXL+JyEpdddlnvda97Xe0DMUrufetb35q80297S5fpCin7IG/9Uki43/IATjzxxN4TnvCE3s4779w7+eSTe0uXIkivd+211/bCAPfC2ejtsccevb/+67/u3Xln0HAS0mXaivEgTg1BpijC6WgQbjSEu6+DEPne3sSqGyOQy7sjUfBiZdRXV9QnqgiO9saCdxP3BdFvjSTXBM2vi6PH8UGYpHNQL0L8P76qt2LJA73xUfIQMhc0WPLg4qhDv4PccPvtvT9773t7O+68U23nX/zFX6y2C4AGMdDoxeCiF85t1WmApvi0Rc9cBBFq4IWlV2mEyONPTzVHNqZ6TMtZHuG1+lSvEZx1Oc8HTWtw3kI+GaBX3xzgFUsXnvLMobJqhVE0T7GUW24q5SunnFluvvWmstOO25Wh2TGKWDAnRs7blfnbLS1nn39pufDi68qZZ51ddt5tm/Lclx5VdnhSfyqR11vDWpD1c9Q2R+v7f/Inf1KXRbzyaI0/38CIzlbrnvSBbI/25vX6YH3TgRGioIzo+DUuyxXUx9H0nHN7RYx4bLIy05TTdtlOeSUvtQnyvhB9oQzHCHf27Mg3SJS76H1lM3RuxM3qv40gC2vJW4VMbDujzNo68rcVYXh5jMZjdDKHLKycbKt9H0a6/bKVG0pqddvMCCjb8s5JJ51UPvKRj9QpbjvifajKqAfQIJ937Oc9vUg6yLs9h1AUtQ7orN7ijY6d+8CRWYzbbrs9Ri17lt133yNGpmQMjb0Cuiroot0hK3UYa6bIbE6MVqPvjfdmlNGxoHkMrebMjbJ6q8pQiFrd6Blpkt71p+1tPNwqeBniviL6DPEbjkHZzAiWW+r3EurrlsoPPkTp4SiWFauWFfst/DaPWQyjODDSN1tHBdrI6bXfcFDrejta0w3amP06ad/qjQ3Fj+x3yYtExjmSJef2Jpk9opMsJ5hRwiubEs1gzIoRKJYM1xkM/ac/W4EQdekKayJ+fMy94TJnHr2kTSvLxIwlwcnF0d7F0SkeDL5EX8SToGflZ9C9TnAET4bs78MHWcetkfGxsmRZ8HOmmdLQsXXzYn/K3UZOs0jqVskXz3z5y18vf/EX7ynf+tY3y0EHPbV+qMqmVbS2BGEmINs+ncDf7GOgPMB7aMvMo70YPtNuqdySgP5gydAyiP1RjvnxPzZFX1Z/fT5nAlcsX1L31Q15DRV6ZDYOtQxzPSEDQZjgdOXHyKqlZeWy+8vsedEhhqOOQb+odJmIfrFk1aKgb+iH2dGJZodMLoxboZdmRNKVKyfKslV+TZss6c/25JipIb8Rh9fRR8nA7Lnzahuvu/W28v6///vyz//0z5Xdf/gHf1hn87TbHhh61t48m219B8ZXbLULtA0Nt2jnIgUFMVoQpjReDFslVDDRq3c6srVmX8nzmhSHgzIiONJQxJ7LMAglhdoqMb6rgSLmYMycFQosBGFodgj5vAfKYcfsUp730oPKgYftUJ5+3NblsOfNLXN37JXb77i73HDrdWWHXeaVF7zs6eWIY/aOhyJTEtDvG2uF+mVn0WGtD3IsCIlXrrzHrT3aot1ogxaemQpTtXFNWJ+0lKopREpRmRSoOB3dtY6aBhpv1NMrwqaDbbi1RKItHEQdPD/2lAE8L7hOWtS/UJh1N304GnVav/404czgWRA2LJ41Y7QeG/IlzsVl+cjSatRsjrL+P2MmZ2FuGLJ54ZDMqb/7YnPnUChhdFSm+grKVEfKx9TiP/3TP9V2+mG8P/7jP65vK3l7I9PjRcrkdEKd1C3pkHwWJyiXzKRcqwP5tx/GZlPToL4F8LWvf7Wcf975ZZuF25aDnvK0oCaa9dd1VTmkiACE4gy6h/z3Im6kZ4p+bhi+MH5uxyPj4u3DiDoMBc1HRleWmXPCuQsne9XK+0MhP1DmLOBNRL6hDKsjMux1y+Cp7+Kbdo9Ir57ayGhqmQKdM2telKGDma7vla9/42v1Gxaf+MQnatssA77jHe+oBkIbAd1bujiix5oM/3RCvsmDLEPZWQ9wz1tIBj74wMHATwZPPyA/+oVXiWcETXxjpG4WDEKPjw7XD2JNBME5HgiOJ8xZkDKcsqBbPDNzBmMT9O7Nr3I9Y2hBpAgDZg1LvSg0fWVuPDQ8Gk7LirJSvwjaDYfj4PbYRPQghix4Ez0nuD9W5s7Sv+3ELeXC864sX/jCN8p73/vn5bzzzy4nnPD8+r0Ib2pos6U38oYvy5Ytq+3Hm+lCynn2y6QxPre8dp59WH3oF6+m+haPPmHze9oCgxuDHLrIplvG2FKuNP1ygmzBiqEhb2v4rRcbKzmySKqfYAo5ZLD1I69Chw6aEQOVuoM5ZHnG7BgEhZxHXmPShwFhT4Zmjsb5qvCOIjOOQ8T1oq9Er+v3mQihUaKrRNswP5JULyTkYsnSB8tXv/HN8ld/8/5wvD9dttp6m/LOd/5BeeMbfrG2DQwofJ3T8o/BaH6lE9AHLfFqi3YuIDsqghAyRisFV5yQaRCMcAiESQc2Yrb2RNAQX5pWAbSocfFvhPduJBbnoxOj0QkZy+j4wyvLvG2XlX0PCgV91C7liQdvU/Y7eKvyhMPmluFdSlmw1ayy6xPi+skLytHHHloOPTJGjztEXSOrKoP/vcgK5WbQNvU1wvHhkw9+8IMlPxpkrZly1Ym0O5Va0iOVXZ6vqZ1rwvqklS9ln6OGrEeWpW5ZNuMMlCtjnDu77Z635unrhvJSf+uePOukgXwg26bDYcl4OBaqaaPTeCjFIYYvQkhCKMkoO8q1Hjo6tjIUMIUUhI+OmR1/LEbhPk4zUTt/1LmODvvKKWXDx6m8S+/XLTkWdmBzgrwCraPamKeTcqS0zTPq6/npRvJTHdF6faBe6sOx5tiZ5dKms7//w3LRBT8p9y1aWu65/b4yf+Hsst0Ofpp+QdAw2hHGxWiMcaHohkI5zhpisMyC4TWHAd2jL1QlGO3WP2J0x0kYn1geBnEkRtYL6+um1SFh34JfYzESC7NfR2G+5UAx98J5mR0Gbnim35+ZXe65675y2aU3lH//j/8oH/jA+8tZZ51ZR5lvf/vb62Y0u99TXpTdImU3dUKmyeu8P12Qt7q0fCcT+KWslClpBLLNwfBtDsbN7Opp0QfMit1/3z1l1vBYmTd3qMytv7o3pxr7iVH9qW9/qu6IrkDmo5hq4PzS78QEZ9l3fPwS9MIwSPioPtrep/+MOcHToWXBgyVxPRoGL+oZ9/WN2bOGgy/9/O2/8Tn8WWEExyZGynU33Fg+d9LXyz999D/K5z77uTBs95WXvPRF5V3v+qPy7GcfX/syZ0IfsKdBO9EAPbLfTifQOukqpKFMXqO9kHH6qdlrr4ubLfIBQraBM0ffeJWbTqJfOXyMslkOs0Vz584JPgU9V89kcyzSuQCEDSekOhgRPx66Y+b84MmCoIN69GV8IurLXZ85TOeE7eJM10/uLw9dFTkF3dXVrFW/z0XayDqaM/mf/EfL/YtuD2fhB+Xj//qv5R8+9I/lgot+VA49/Mjyv/7n75e3vuVXy47hPKCPdtqf5Cud9uRxAs3e41MO+NCo2tEt2bkgPClMKTjO8x4hyhF0KhHnnAhT15hm9sJUttGbDm6kgMDOMy+Qdz1WHYTJM8ucUHh1tBXiMewzuOHVmxaeFc/2YnQ8NrqszFwYRpbnGYpgOJTDjk/aujz5kCeW3ffYvgzPMVqOfGeHciaS8p4sMtuSSk/HNCNg+tdHUIyUbZiyGYxy9XYC5UpIdORs8yB9hMzTMc/XB+uTVlloLi1hdk2ZqL+y0ZXgupbGuTRAsdq9LX3+YqVNV0YXOeIxevBMFf4BBVW72nB0Pksb4+HkjHlbQnv77R8Z85nrSKPcsGxzZ5tm57B4MngQipqylobhmxX5GzWrK5ngDFH6lkBsWLMcxUn1aWdfvzRzxDBkWiOfQT5MN1JxKgO9k+bis0znSS/9wqgN1FM8A/3sZz2r7LD9jkHzS8uXvvaV+ibTHXfeWkZGl4czwMiEQTMtj5b16aEQ2/nxf99I2VhY6R8smR3Eq20NcZnta4UUcCQYDt7PmWeDbjhC432aV9IbiUW6/ujYEoulG46AzXgrQu4fqMuZn//cV8q//MvHysknf6YsW76kvPo1ryp/8d6/qHTnKLV01s40NinzQiJlRxrP5fV0QVnqAOlcZFnql3XRV7J/qAMn1RciGb6bw6jRT2edeUa54cbrysoVK8rIytF4ZkGZE6NfyxTIjM6OVTdFvr69MCecAoZo5coYrY+Gfqq8jzpwviMtJy6qYz96XI9HX/HryavKnNnzw5Ex0xE0DL4OBy+HpQ1Hb8UqX0NeXG4Pufje984oH/qHj5T/PPEz5Ybrbyy77LJD+b3f/53yf//Pu+rmzRw44AsZ03ZtdK2deDJdSHqSZ8cqe5PxQstb5+qRPLeJ0wZ/MxQ2NloqEUfP0KM+8mfDp3qzE2aKpR0Z8WusK4MXveADWvuAno3QlQVEGlvquWP4zn0Gxb9VK82mR52jfE64/lN5EvdmBp1n+G5GdSz8aralx4iLjGdHkKb+EjQds3JFuSd4cfGFF5ZPf/qk8qEPf7Sc8tWvxXMzy8///OvLn7/7z8urX/L86IP9zf9mWf/6r/+6fgLAD7f5rS2vbJO/HLilXha3wT7/vblBu4VW+Bhqo05fkvQz7Tq6nbQMnHd+CRl4DtGBEuw/b0WYrBAGNDVzEr01wPGI/yWJ6JAGU5CkKv5VOPYfqccJ+ccIz+uTpsWyPAwHHdWrajxnv5lgxkXnMNr3mpd3k3nY4vI57dzUea2O0Cp4tNVesxe8a6/VOme0TbPijW+VmKFJ+vwUNDnaLU/GcPHiB6uS3377HeKWm7gV5eFVXJo6jv89EiO84FqwTbW8s68uFKsPtHnTyPSpryqaIlVHH8cyreiVRzNfrRLb1JCykLLfAq3QiPxfdOGPyof/4R/L+RecXy6/4kdlx522LS9/xSvKy176inLIYX6jZNf6tb9wB6r4ol2K9UM5G2NBGHSKcXJ0h8j4PF77RDgQXJMgmdCHdP3OsXz5iuq4XX3NFdFHv1e++53TY4R5Y7n3nvvKK175ivKmN/1yOKP716UEilD9tUMbQDnaPFV7NyVkH1DXrLP2aIsR9amnfjMGE18JJ/sHIaszwhg8sxx37HPK8c85oRxyyGFl220XVrlFNmqnTz08tQehP5s1NtLn1Jw5w2XpUm8tDZV586PvYEk43xY7BA/XPR2Vk5jCkQzHIryMpcuXhhNxXTn7B2eV07733RglnxcDm0Xl0IOfXl73uteXE054XjnoqfuHEZ63WtY2JaAzGdFvzUq0Mu8e/W+AxoFgcO0X8Wls9zktBjhmMOzx+cxnTqp65YgjDisnPO9Z5ZnHHVMOPeTo8qQn7TtZWp8HLSqX0bvaCTYjaFs964iL+GBXfaY3sSoobya8r5d8wXO0/jDjvBgM9ZehLDPdcvPN5SeX/qj84Ozv1+/WXBGDgV123rG87OUvLy952ctDRp5ddt115365AQ5FvhpsMGRZxAA7aUF3DfKtcy7WE1WpBRGBJ52dmoNhicHyiN/kYDjMXnAsvEblgyOMGS92bSAw3i+eCE8TrNPXqXpT8zzUASXiel2Kz3qs0Tvh8aqa2RWwVu47Fhwgr1UxvKlctY1ygk2d1+iQNEjeZN21x7IIBatj6BQ6t3Vo05amLL2TzcGyjwYN5s/3UaX+81NBnpn/2qDzmikxWjaacSQjPtVsGtUvW5IJI8zc6JXYVGme9ZpK5tKoUTC+IaGdl8fo7IwYMfc/PnddKOWRsu1225Zjo90vCqWLBhzahQu3KvPm9pXeowEFvjJGYvrjZZddXjfTUfS+lnj33XdFn0T3o2qfRPcDDti/0l171N/zzluHc1OXfyD36p3tIKOtfjIzec2115Tvnfa9ugxkX9Jdd95VFm61dXn604+shuLpTz+i6ivr5ttss/XqZx8Nli5dUu677/7qWJ9xxpnlx5f+uFx4wQV1mWbhwgV1duI5z3ludfgPOaT/3SA/0w6bch8w+CLnqW/SGUV3P9zlw3dkj2zbP2UfT+5HsHRo6cQgz6wxvWwGY6utFpY9n7hXOeyQw8uh4YAfccTh1dHYeuut6nOPFmzLsmXL6wbmSy6+JByKH9Q63njjDbW/bhP94KhnPKN+kfT4459ddtll1zrTAsuWLS0f//gn6mZz9oM9s3RrRoZjkTLnqO+Qw+Rf51w8DBAoQedjZBASGBLr0JSZJQeGzEhVGlP1GMGIW4+z0ceyCmdjypHzIwCeYDDBtabHqJqp4FhwenjNBNyOZkbVh4+MmlPoU7nqNBTT44XH6o0H+OEcbzJOOxKMXX6XwSYkCpaToXPghSlkDqHpfVOcC7faquwax8i4Gj5GCG08Y6kCfR544MGqaMbG+mveaH/LLTdX2t944011s6xy0d4UKVrL3xSpkY29ChRq4vHUr1rjo95C0t8PTvWXifqG7fzzL6j7Xy688IJKG3K6VRi2HXbo/0KrYK/APr6VEef6hTV2Slv/0Ic4fHa3c1DIKYWsv+l36Gwq2j4ihgzNvTXhHPbYY8+qrMm9fjhId3VO2pObn1KO0c5NnS/orp6pi8jiVH0AfThd5513bjUsl19+Wf1sszQcr11327V+ZdZMjkBmBXxYsGB+hIWVVttuu03lyZIlSyv9s1wjemVw7tCfU8+YucYTdER3fcBaPX5wMPW3FtmeTRnaqt3kE00M4lKmyLrZYYMKb1VwZG0WNmOatAJv5kl73nnnh7NxaaUZmbastfvuu5Xddtu9Hp8YTgf9xFnRL1JH9/vFQ86YJUCiOhJ1W7a8P7jJvnH77bfVvocfd4U+WhR8VxcOzDHPPKZ+gNAga3+/ZDpJe8+rn9lfjhC54lh4K8RbSKC+6qAu7ju2vOuci/VASzDKUUBUoRUYcI8Ry5GT9TUGBt3saaDcOBhGzzovo0bBWscmrKlQ5etIkDDOaFje6kKgnTNohIeScE54CK0ROsEi9JQDwfGVR6M2To5yQT7aoG7ZRp07r9t2b4pIWUweaA9aAdoJLew5MXKyH4PTZTaBo4G28uBEMG5oZpnC8+jDi+dU6NxoZ7od3ZUlUDYUCZrjg2vPUgicS1+1Q3vGDb9bmVFnoTUEjycM6gPyAy3tGR0Gxu9foDkHzygIHdGXk0f+BefoLaA3ujiiEf5ReviV5465wdS5/sNgcVjMCpm6ZcRyn0hCPTMoI2Vde/QtPGr5tKmjrT8HDLJdbT/WNrKbH4FKXtAV2ot+nsMHAX/IvP4A5Fcask7vJJ/R3shc4ISjq2fRnUOhH5itw4vc+J5QZ+kH67qpIetG3pJW5E6fJ685O82x8uVgvw1kUONDZ5Y/GXG0QMMEGprZlM7yrT5Cj2ffoJM4LuiYDnc630lDdcBXR7oH/bNvONJNzj3DcfQBSA4eXqgbPifwVV+1fOuXd82ysFc+kOXnIMzyZlmADuqBNoO6oHMuHgZSuJKZrgmAo87RKiQCSEgIDENGgBg2IyrPExZCwmhxLihEXqtrgppKVccmGBQ0oZEv5UEZGBUYHRJuQTqQF6ExOiDQpiCNnNVVvkBBM4zqke3SBnGuU2A2ZagveWzpnkBj97TBvcG26IT4gy+UK1rqSOLQWOdGf0e01QHxRmeVl3v4oBydlsIwwuBA2j1NmXLkOBjptLTIuqE3WZLf4wWDOiBpO0hjyH6RIMNm1zjADBzHm0KlkMkyuUzegaNrsksmMy/X+gZZ56hTwM4pQk4FJUq2pUdfwfOC/NBd3vpD9mHX0qmzdOIH27qpoa2fNgzyQHukQQftaYEG6M/Bxg+GjuPtq7dkG68YJufoQUbF0TPyI/fyzLzdp2cssdA/+JCvyOoDa5Jx/FAGw/l4oDmapkymPk2ZRSfgwF144YV15O+zBXSIgaXNw5YfGGlyRq8kz6Qxw2AWw1G/MAPtyG4kH9A75VVIPZjlo6OAF0n/1E32mtFNOcCk6/BTHvolp8gyMl2oTWa4fffIvjBlSksGcpBEhjxLFpTfonMu1gEEZYgAw1IQBumAwO4heCKVGIVJcFJYGDTn4jkNOnAqVZCX4FllKys7cZaLmYRH4JRYciFAlj4IlDhOSnbqrBenJBUFpJBm53CtrMcD1FW9dXbty44+CDTUpuz4Cc/pXMlf55wHoy/eu/Q6EgdDp2IMzQzx+n3uNjslXqSRS2WhLkJ2dnGAxviq3lmnvLepQz3VP2UwIT7bgB7atrZ2Jc/QwZFM6gfoSYHigf5iFIX+6ITGOavkWiDflBzac/yUjdbi3W/LV2f3lZd0T3nPe+oFZMl9GGzrpgb1z3apaytrLdyHbFdCm1PHJA3wg6FBf7Iv0E90yVlnnVUHSUa/lveURc7dM7vhyHCpB7iPb8mTBD6D+rR6bVOFdiStUneSX/HZVjR2Xxw51S60srfCm2EGmmhJV9vsSYdwwujrBDqgjbwcpTfg0R/kLY6eSr2lTmioDvjgiN4cazYAT/AjdZHzlg/yti/JiwmWQTiX6o+3HCF7YrxqPtjmVo7UVRiUvc65WA9goHYTliSeY0tIkKYN0gsJ+WRnpUgJiNGa0QODRqnqxHnPUSCo2WFTMerE+WU+Mx86rzRGcNK3UJesKyHIeqkPYQF5tgLjmU0d2SZKMaFNya/WiGivo/Y619nWBPmhu7TyQE+jOz/YYzTiexR+2CqVsQ6PN8KagJ/KV27WxTHb4HpTR1tXIa/zmGiNHfq3ygxNBfGD9EJLz3ou6Spt0ga9Mr8M6DlYPuTzmSbjQFz7jDKUK14ZgvqDuE0Z2Y6knbqD+otznTRyP3njWnzb51swXOginXwEDpwfdzMwYnS8jiiNe+jEsR7Mzz15qIey8QSkT3pD8nhThjoKKRPOtZ+u0O50KKCVG84amlkq90EtS4OeYfg5aZZNc6aHTqfHpwJaJv+Ui5aulZW8zJD1GISBrEGS5XrB3kDOBUeSE2G2W7A3TH3SaScPWYZ2c/pdczpcu985F48QbedMGohLYua5e9nhMGJtBidBWLIzCwwRJ8M5TCU88uWdOl8b1EddHAX5gHbAYOfPNNmWTRnoNqigtCHbK769L94z7okXkm+QNGnTSwM+guOTMPbTmCL0KhaFkB69PDOfPHeUB+QRbeXv3mB5mzqyfdC2N9HGobM2uyajeS954Dx50LZ/qnzXB/KElnfo6zr7iDjlJe3dyzpB25f0R2AwpN9UkfQSsp7ZB7KNSWegU1LutDfjPdvSUBr3W16I88lntPn5n//5uuyXyDw9q2zPOYesh2OWoR8kHwTnbd/YFJG0oJvVM2Ujl0rNGGT70RWtxadcaSdjbpnc90ecWw7kaDDi9qJYUrKsannPTHTOBsmbrmlldE1QLjrL14xHf1Pn7av32ghmVDgIHBlOBV1mCcSsLAfHYDUhP0Fb2R1tY6MctVcbW34nOufiYSI7wlR0yI6aHTs7i3PE90wepXEvn3mkkBdBynwGO68yMo0gPtEKqnsECAjQoKBsatCm1pvOOPRtIS7jk/b4kXzUzmxrHsVD5mUpy2tmZpg4F7x8v3ng42PWL9FefiAP53lEU+eDihq985nspJs6BmnbImk2SGty3sZpZ3uvvc406JL0cY12Kd/i2rQZl+XIT9o8zzTuC+TF0TPSuZ+090w+l30h+9GmCu2AbANkm1tkG6a6B+7LK/NLmZavoK/Zi+Fnt03r26DIIA7CM3gHLc/koewMgA9ptMSl3tmU6a1uuVSXzgRoozZk+7O/u872t/qWg8LA+0SAgYtZBPtePMuZsD+Cc8HwW/pul5wMKs0SJY/QUFCeWXFLjPJRT8u7ucnfrIU06m0vGAfGmx/eaDF7MhXkn1BnSMcDLciFPKdywjvnYj2AUdpNQFIhtUgG5LEVIs+K90w+L6/MLyFNm26wjEFkHnmuHIow88yOqy5tfVooT7qsS7Yt27GuOjzWUHf1FrTBdUu/pIv2aFtLB/fadmZbxWU8euqgXsUy0qBQHf0svfz8Dou3QHRWowR5OJe3MFW+rrN+kPUQt6kj6zwVtAPwQHvQbqr07gvAmEibBgZNPTcIoyT0afNs6em5FvLKPovnjsqANTnObT2Uk3m63pQxSA/Qvmyj+otPmmuXe2275JH5SOceuqFHpudQW5NnCH0o0J6BzFd6aQb7l+elMeKWzrVy0HeqOrTXmyLUTzu0s6V7ax+SBvQBg+s606T8pk4ii2AjrVkM+x0sv9pgLphpSIPuObyQZ+uEqY+83BcnbwZfvDhlckYsnZuR4FDY4G/Jw/48eclzKsjX0ou8WkcKslyYSqagcy7WA22bU6imQqZr06zvsyDtutKsCfmskGVOVZ9BrE+axwumol+2D9bVxrzvmVQivmbqc906p8/dUgA+lGMUx7Hwi4Be6fIshZLvu7cKJOswVf02N2Rb19bOwTSukzZTPbemPPOZqTBVGbCm9LA+aTZlrK3+5Nn91jC6TgMBjARHjkExSgZy7Bl7w/xSr82HvurLUHk+y4TBcgfrM3j9eIQ2rKmdkPdag+9++1yet/mgOdpzDMwweDvEWyNmSw1wzHJwQvCRw5F8AvxJR4a+MbNAD5mdMPsh5BtVucQiPcejRduORNZdO9S3TZPnbTtadM5Fhw6ToEhBJwWdhnNhKYS376um1lc/8IEP1I+l2dDm+yFe9zVN6fkcPUB69B06PNZoDcGgUXCdxtAxnWJyzACZWudgM3j2WliXNwshTYep0dJ5bZBG2uRFCzTmWHAmOBwGL3jCAXGv1TM5GyQ4p484EhwKSylT5Z9YVz3Xty2D6JyLDh0COpBOCzlNaJTgVS3rmGYueP/S+freZz7zmZrOUomPlIk3mhDHAaF421mLDh0eS6RxIdMCgyQkyKmQzjAZztGwnzXwlogPKXGmGS6Gzgi4w6NH0j6BVxtqUNKWlTKxodANqzp0COhwFGnOWgBnw7vi1idtrKKUwQaol7zkJXWTlNGcdKYojS6M+lJptwqjQ4fHGmSTDJPLqQxLGjQjYiNjfSG/ZOsDUDb/SSMfDkaHR490JByT7kLyKeEc3dcH0g4Gz+bzWd6GRudcdOgwicHRHJh9SIVqilLHl8bUsB+AM4vh2xfS+aBTbuTSoU1nboxO3KHDukAegTyS31YuGTKGLY2Qo+l0rzH6+JP1fkuC9lt4NqfjO0wP0FugZ9CXU9c6AC3vkkd4Nhjco5/onXbpJHkqSJdxGxqdc9GhwwB0Qh2wncnQ2e16zw7vVTFfsJPu05/+dB3hSWN9Uwd2nk5Ghw6bAsgueU7ngmyacRPS+JBba/Y+6vfJT36yvrHgg1k2LXvOPUcy3uHRIw0/uqe+Sf4knA8G8Fw+n/A8PWWwg1eZn6AMIZ/f0Oj2XHToMInsdDosz18H1SldU6Y6qqN04vUFr+bZ7KYjv/GNb6wzGpR1Kouuv3TYFEAOBw2TkMaJrOY9vyvhNyb8mJZfUPZGFKfZiDidj0zb4dFjkJbJkwyQjkGLvActXxPt+aBT0d7bUOhmLjp0GIBO2HbmdC7E65SuwbXXUV/96lfXTZ+f+MQn6i9NckzSKenQYVNAK7eQBoxTwVlI+BS0D8bZZ+H3JSyHcCxMsZN3M3XZFzpMD/AhQ/IlQwLN2+WMVkelnmrzyOC5NmT+GwPdzEWHDg0GlSZ5z8BhoGSdt6M3nd6PE1HKPlhjBsOrqxS3jW9dn+nwWCONUjsTxyjlDJxvKPj9izPPPLN+yMkGzje96U3VseA4S0u208B5Lo1ah0eONPZ0SRsGkXRPZ2IwnTzafBL4nPcg72UeGxKdc9GhwySyI+YUMUdCJ0wFnJ07RwCWTWzytMbpvn0XJ554Yt3UaTbDqE9e0PWbDo8lBg0O2eYgk22Gy6Zkr1eT51e84hX1jSjfSfAcWW8NW/YTz3aYHrT8SV2TR6BH0D55kfrEc+IdBbwRnONPxrfp83xDo3MuOnSYBNkWdFbQiXVG1+29dC4oZ0o6nRHLIZS0D2/5gqdXWH0bwM57mzszT8/nVHRepxJoy4KMFzKuw+YP/AY8JyOQcpAQn4alBWdBXBp/e4DSOJFX8sYhBrMUPgjn6Dcs7LHIj8KB8uU1KHsZ32HDIOmdx+Sz6/Ze8sBRIBNTxbfI5zc0OueiQ4eHCX1A0OHzuu3EPhH+la98pVx++eX1Vw4p7Gc+85l1Whko/3zeM4PPw6BByXvSdtj80fI7eZ5xjhlPhshTOxMB7mV6zoXzDDmbZn/Qt771rfpGiJ/+ft7znleXQyDL7PDYInn4cPjhmU2Bf51z0aHDw0TbB4wCgVJPZ8OuetPLp59+evn6179ef4chP0LkZ6otpzAIAkUv5DnIP0cgObXpXFnpkHTYvJEyhtfr4jfnIWfQyBakcwqZVzoivl/BsfBDZK79CNkJJ5xQ91dApu/Q4dGgcy46dHiYaJU9g5/T0zlqbOHz4b6D4fdJzGL40Se/SQKWUTwnLFmypCp3BkJ+jIW+xli479onmc1+KKfrh5s3yAA5w/upkPyfyvHwGXr387ss6agKviprb4WPv/mFzLe+9a2rf267XZ7r0OHRonMuOnR4mGiVbyptIZU4ByGNgms//OTVPt/E4ESYxXjuc59bDj300JoGKPb8mJHpbcF5GgrXObPRYfMHng8aevKVMiY+HVPX6RiA2Qjxua8Hbr/99nLqqaeWs846q/4myAte8ILq5NoP5Hl7gjzvvEOH6UDnXHTo8AigHwjtGjcFn0qeYmcIzDgYQXIS7MHgZFxzzTXVUXjKU55Sv3xovTsNQX621zWFLz95t3mtaTTbYfNC61ikDDiKz5DxQqZvnQobNTm1l1xySZUfMueH9o466qjV6Ti1eZ75d+jwaNE5Fx06PEykQofcE5HgDLjHeXBOcbc/8uSbAeecc059bdW3BfweiW9i7LvvvnXZxDV4LkemgrwsiyxYsKBbFtkCkDKVfG753TqX4tOhTUeXI3vllVfWYFnOzBkZPPbYY+uMGRkCz+Uzzs14yMdSXCdfHR4tOueiQ4dHgLYfpCFwFJ/BdRqCNAB5vWjRovq66gUXXFA/XiTeiJIB2HvvvetIkpMivnVguv63ZWBtspTIeLJlVoJzwCnlvH71q18td955Z50VO/7446tTkZs9pcnZsXQkPJvOhnhxHTo8GnTORYcOjwCtsecEOFL+aRQo6pyqpsCdU+qQ3xig0L0G6DccLrroonpOufs+htdXTWF7PvN3r+t/WwZSjlrep8yBeA6Ce44cCb8Jcu6555abb765POlJT6r7Kuzr2WabbVY7IGQ091eIy/0ZZtqyzA4dpgOdc9Ghw8OEPiBQ+JCORM4yAKUtTSptSEPh2rl7rr226vVAO/kvvvjicvXVV9d4BsKeDLv5GYgW7rfIMtY3fkNgY5a1OWBt9EoZSZlp5Sgh3tKHT3aTG87rfvvtV388z5sgO+ywQ3UkPAvkVB4CR8OxvQfpIHfo8GjRORcdOjxMZB+giKF1Gto4yOsW7lHmHJH2vvg77rijLpcYhRqNmvXw8+677757NRYHH3xw/ZLiINKZafN0LV6+prrTsOQ9523d2/stsi2DGKx7Gq90sDYHaA/6QEunvM57U/E577fPJNIhFe/ZTJPPiMu822cXL15crr322rqUZs+On0b3uXn7KOzbMevFschn8B8/2jzkmzMWyat0LrIeHTo8WnTORYcOjwEo8OxLjpR77tgHRuOyyy6rI9Nbbrmlbua0nHLIIYeUvfbaq+yyyy7V2fBaYT7HWKWRMzJNyJuTkgYrnQWGxXVbj0QaGSHTZ52F9j5Iw2BB247HM7Jt2WYhHYGp4luIQ5O8l/fz2r3WGcs8ByE93pvZIge+/nrjjTfWD7XBnnvuWR1OcpGbgUH+QuYtnxZTxXXoMJ3onIsOHTYRcAgYaFPVufkOvE7op7CNVn2vwD0zGd4uMashWDZh1BkufdT3NFy3vxGRBs05o5Oj1oT7OdMhH/UYTANpuBgooTWcmxuyTXnMNrdI2ma86wyQNHJE/6mWOKB9hix46+Puu++uMxVXXXVVfYXZ20a++PqMZzyj7qew+bflUeYh/yxD3WCqMjt02FDonIsOHTYBUPxt32oNgVGqqW9HSyVeL2Ro7NHgDBixeiuAseFw5G+YJOTrWYbNGnw6LuIZMHmI54xkPdryGSdxQjoWkA5IOhcJ6TYHZFuTFo5TnSddMi7jIWmZNMl7vmeSM0q57wE4hRwIH7uy98YMlnRmqmzwPfDAA6szaRkEv9KxkH86p/iRM1UgTrmDfOrQYUOicy46dNgEkEZH/2r72KBBYEBMk9sEytFggEyTM0IMiv0YnAtOhlGtJZT8rsFUYLigNT5pVF0LbX3ac89kvaWXl+upZjse78h2QtJgqjh0cJ60EVwnTQedMTTzHQqzUvhopiIdQfzkOOKhzb077bRT/aKmPN3PPNFbvnmtPHHKcW2jp2vOSNazQ4cNjc656NBhE0AaIaNMxzQO4iENRzvKBWvxNoHmx5LuvffeOsthRsKSiFEuR2P77bdfbZzs3RjMpwXD1ToK6WAoX1zWqUXWL5/ZHKDNQtvejGvj0ScdhkH+DcImTGlyFsqSl2UP3z0xe7TbbruVnXfeue6lsKcG31znbBOgszwg6d2W1fJCyPOp6tOhw4ZC51x06LCJQN9i1CENtLg0EAwKI+M8N2xyFNwH8b5x4HsZZjRsADTFLg9GKjeBmt3gZDh63ojWkXFrIT9glLJ851lewvVg3OYAbU4nKwNaDupANJnKoUonwiwTZw8vzFCYebL8wREUpxz8yV/ONVPRIsvL8vM8kXUSMo08B+uVz3bosDHQORcdOjzG0KcYMbMJaTTEWZdPhyJHrmnghUFkPvkMw2Wq3ayGZRObQY2W5WsDqBGx7yLYILj11ltXxyN/mVVerQFrz8H91vkYNHabA7Qj6TAVvRPowNnLGQQ84Dxw8uyL4ehxKrxGajZJQHtLHfZRDO6TScdgKuCt/N3HJ+eCZ9RVfLsXA5JPgzzs0GFDonMuOnR4jKFPMU5pxBgG5+IF5wyINGYYII0MDBoT93LZgyNhzV1ao2eORv7mxAMPPFADmMUQOB05FW+K3mzH4Ae8BpH1hM3JgK2rLfkZbU6DJSkOBefNOWfOfbzhOHDa0NQHrjhy+GWmSFAOB8AR38gAvomTLkMCrd2TPyfSvVZW2nqrn7zUQ1nJpw4dNjQ656JDh00A+pXQGoY0OIyNexyEvAbX+Uw6JSDOs+La/MA96/72atibwRia4WCETNczigJHhDGyfMK54GQwjkbd4sxyiE8n5pFAXR4LDNJkXWDE0cryRr7NgUZmJvJDVhwM9LJ5Fl1y6YmjlrTiZLgeBDpwCAE91c918rZF8hrSuUw+C54R38qO61Y+OnTYGOiciw4dNgG0RkQfYxwEYBTSoDA6zvM606UhyXzS8fBsm/eakI4FZ8NeDZtEOSD2DAgMpxG3EbAPd+VonLPhWjCKNrPCwCrXM67Fe25TQtLWkWPFmUIDQXs5FJwJToNz9wVp8SBnBKRFX46EYAOtPRO+Q4Jeg7RPviSv1oc3yWPPSd/yfzA/5+lciGvp7l6HDhsLnXPRocMWjLUZN8YzZzKM0PNNFE5HjtYZWXkwYkbdHA6jdo4FByRnPjgc4nJkzvngeLTGMg3kYJ0Gr9eENLTSp55Kw5wBzD5wHFynU6FN2pftkkZ+2a5sj5kHb91k4ECI0+71xSPVoW271oWHk7ZDhw2Bzrno0GELRhohhtYxjTy4Nmo3OmdkzVIYtTPIDHAaZEdLBRwP8fZxeFZaBloZnAkzGO0MB2PtHihTGoZcSKPuftZtbch0AodHvTlH6uooiHc/4zOdeio7lzQEbbUUtOuuu9Z6uJezNeoufdIu65bOUdJvEOtqQ4cOmxM656JDhy0YadzTMKdxzHjIPj8Yl8sDGRjqnJJ3z+wAp8MsAMcjDTw4miXIZ1vjL++sx5oM9VRQhnI5L4LZBk4Ch4BzwCngKORSDQchl25yacd1e0+cuqTjMxXUN52oQdqB+1PRsEOHzRmdc9GhwxaONHht387zPGaaNPbi18dQchZy9oDzwYHwrHOOB6PMIcg0ztPBSEPten3gWTDrIXASOBdCuyyTIR0QjsP6IB2ntm5tHR2nokk+A0m/Dh02d3TORYcOWzDScA8aWPEZ9Hn3W8cinwPx+bx4TgLjzcA/HsGJELQrZysyLtvtXhvWhKlo1aHDloDOuejQYQsGgwmcg3bUrZ9nEN8aXGEwPWTaFgyr5zKvhHRtkOfgs9MNdck6ppEXl/HZNpAm77XxDwfZ5rbdjySfDh0ej+iciw4dtnC0Rj2NodAaYci4QaQRTuejnbFIwy245/mp8mghbTozzs0eeMb52pD1XVP+Wc+sTzpImT7bIFhicV9bMt9BWoBnIGduEnl/sM5rqluHDpsbOueiQ4ctGK2x07fT+CbSWItr7wviGdXW6KaBFtfObmR69zMP13nfcdB4Z2jjHw7asvMotOW27c34Nl2WnXFt2rZemV/eh/Y873fosKWgcy46dOhQMVXfbo0ttOeQTkTGCwy2+DUZ30HnwjWHxAzF4AxAQvo1oTXcmW4wfZumhXSZVn3beg4+M+iItO1L5P08Qubj2MZ36LA5o3MuOnTYgjHYn6cymIwqTHUP5CGNwIByEsS1eYtPI9siDTbnwses7r777vp2h09m52ug7q3p+SzbvXQOsuwsP5/N57PMfGYQbVsyz/VBlgdt2QnnbZoOHTZnTK0tOnTosEWAwWsD4zcY1nZPAEY4Zx4yrs0XpnrOK6jOvRbq0+Mf+9jHyre//e36Ya58jqGHvG7z9Ww6H5D5ulan1jnIcvNePj8YxLfLPVOlmSq0kEeWmxhM06HD5ozOuejQocNGB0PrlVXfmWDEfQXUdy+uueaaOoNh1iJhU6U0PsrlM+Q+lsUp8a0M4JikI9ChQ4dNA12P7NChw0YH58KMhBkCMw+cBW9ocCxcp7OQnxIHH8LidHA2BOk8Y4aAo5EzHB06dHjs0e256NChw0YHPWLmwqe3OQW+3HnllVeWd73rXfU3PY4//vjqeFx//fXlwAMPLEceeWTZd999f2qpwTOcC45GOirdDEaHDpsGOueiQ4cOGx30COcglzzgiiuuKO94xzvKtddeW/bbb7+y4447lhtuuKGmedaznlVe//rXl0MOOaQ6EvlMflbcj4pBp586dNg00Ln5HTp02OgwA5H7LYCD4BdWFy1aVGcgjj766PLOd76z/N3f/V3Zeeedy9e+9rW60TOXQXIJxPOuO6eiQ4dNC51z0aFDh40OzkBuyDSDwUnYfvvt6y+YHnXUUeWEE04ohx56aDnssMPKW97ylvomyjnnnFPfIgHP5syHpRXX7VsjHTp0eGzRORcdOnR4TJCzFjnzkLMZBx98cA2ubeB84QtfWLbeeuty+eWXl1tvvbU+I33OXuTnwTt06LDpoHMuOnTosNHBGeAU5DIHeNWU02A2wtIImI1w7k0RzoS3R8R5/TQ/1uXaOWfFdYcOHR5rlPL/A28TkCFFslWZAAAAAElFTkSuQmCC;" vertex="1" parent="1">
          <mxGeometry x="310" y="40" width="535" height="169" as="geometry" />
        </mxCell>
        <mxCell id="Qwqy4g0Rz2QXGqjSDHq8-33" value="" style="endArrow=classic;html=1;rounded=0;" edge="1" parent="1" target="Qwqy4g0Rz2QXGqjSDHq8-7">
          <mxGeometry width="50" height="50" relative="1" as="geometry">
            <mxPoint x="-20" y="80" as="sourcePoint" />
            <mxPoint x="49.99999999999977" y="83.68421052631584" as="targetPoint" />
          </mxGeometry>
        </mxCell>
        <mxCell id="Qwqy4g0Rz2QXGqjSDHq8-34" value="" style="ellipse;whiteSpace=wrap;html=1;fillColor=none;" vertex="1" parent="1">
          <mxGeometry x="40" y="220" width="40" height="40" as="geometry" />
        </mxCell>
        <mxCell id="Qwqy4g0Rz2QXGqjSDHq8-35" value="" style="shape=table;startSize=0;container=1;collapsible=0;childLayout=tableLayout;" vertex="1" parent="1">
          <mxGeometry x="30" y="540" width="240" height="120" as="geometry" />
        </mxCell>
        <mxCell id="Qwqy4g0Rz2QXGqjSDHq8-36" value="" style="shape=tableRow;horizontal=0;startSize=0;swimlaneHead=0;swimlaneBody=0;strokeColor=inherit;top=0;left=0;bottom=0;right=0;collapsible=0;dropTarget=0;fillColor=none;points=[[0,0.5],[1,0.5]];portConstraint=eastwest;" vertex="1" parent="Qwqy4g0Rz2QXGqjSDHq8-35">
          <mxGeometry width="240" height="40" as="geometry" />
        </mxCell>
        <mxCell id="Qwqy4g0Rz2QXGqjSDHq8-37" value="" style="shape=partialRectangle;html=1;whiteSpace=wrap;connectable=0;strokeColor=inherit;overflow=hidden;fillColor=none;top=0;left=0;bottom=0;right=0;pointerEvents=1;" vertex="1" parent="Qwqy4g0Rz2QXGqjSDHq8-36">
          <mxGeometry width="60" height="40" as="geometry">
            <mxRectangle width="60" height="40" as="alternateBounds" />
          </mxGeometry>
        </mxCell>
        <mxCell id="Qwqy4g0Rz2QXGqjSDHq8-38" value="x" style="shape=partialRectangle;html=1;whiteSpace=wrap;connectable=0;strokeColor=inherit;overflow=hidden;fillColor=none;top=0;left=0;bottom=0;right=0;pointerEvents=1;" vertex="1" parent="Qwqy4g0Rz2QXGqjSDHq8-36">
          <mxGeometry x="60" width="60" height="40" as="geometry">
            <mxRectangle width="60" height="40" as="alternateBounds" />
          </mxGeometry>
        </mxCell>
        <mxCell id="Qwqy4g0Rz2QXGqjSDHq8-39" value="y" style="shape=partialRectangle;html=1;whiteSpace=wrap;connectable=0;strokeColor=inherit;overflow=hidden;fillColor=none;top=0;left=0;bottom=0;right=0;pointerEvents=1;" vertex="1" parent="Qwqy4g0Rz2QXGqjSDHq8-36">
          <mxGeometry x="120" width="60" height="40" as="geometry">
            <mxRectangle width="60" height="40" as="alternateBounds" />
          </mxGeometry>
        </mxCell>
        <mxCell id="Qwqy4g0Rz2QXGqjSDHq8-70" value="output" style="shape=partialRectangle;html=1;whiteSpace=wrap;connectable=0;strokeColor=inherit;overflow=hidden;fillColor=none;top=0;left=0;bottom=0;right=0;pointerEvents=1;" vertex="1" parent="Qwqy4g0Rz2QXGqjSDHq8-36">
          <mxGeometry x="180" width="60" height="40" as="geometry">
            <mxRectangle width="60" height="40" as="alternateBounds" />
          </mxGeometry>
        </mxCell>
        <mxCell id="Qwqy4g0Rz2QXGqjSDHq8-40" value="" style="shape=tableRow;horizontal=0;startSize=0;swimlaneHead=0;swimlaneBody=0;strokeColor=inherit;top=0;left=0;bottom=0;right=0;collapsible=0;dropTarget=0;fillColor=none;points=[[0,0.5],[1,0.5]];portConstraint=eastwest;" vertex="1" parent="Qwqy4g0Rz2QXGqjSDHq8-35">
          <mxGeometry y="40" width="240" height="40" as="geometry" />
        </mxCell>
        <mxCell id="Qwqy4g0Rz2QXGqjSDHq8-41" value="q1" style="shape=partialRectangle;html=1;whiteSpace=wrap;connectable=0;strokeColor=inherit;overflow=hidden;fillColor=none;top=0;left=0;bottom=0;right=0;pointerEvents=1;" vertex="1" parent="Qwqy4g0Rz2QXGqjSDHq8-40">
          <mxGeometry width="60" height="40" as="geometry">
            <mxRectangle width="60" height="40" as="alternateBounds" />
          </mxGeometry>
        </mxCell>
        <mxCell id="Qwqy4g0Rz2QXGqjSDHq8-42" value="q2" style="shape=partialRectangle;html=1;whiteSpace=wrap;connectable=0;strokeColor=inherit;overflow=hidden;fillColor=none;top=0;left=0;bottom=0;right=0;pointerEvents=1;" vertex="1" parent="Qwqy4g0Rz2QXGqjSDHq8-40">
          <mxGeometry x="60" width="60" height="40" as="geometry">
            <mxRectangle width="60" height="40" as="alternateBounds" />
          </mxGeometry>
        </mxCell>
        <mxCell id="Qwqy4g0Rz2QXGqjSDHq8-43" value="q1" style="shape=partialRectangle;html=1;whiteSpace=wrap;connectable=0;strokeColor=inherit;overflow=hidden;fillColor=none;top=0;left=0;bottom=0;right=0;pointerEvents=1;" vertex="1" parent="Qwqy4g0Rz2QXGqjSDHq8-40">
          <mxGeometry x="120" width="60" height="40" as="geometry">
            <mxRectangle width="60" height="40" as="alternateBounds" />
          </mxGeometry>
        </mxCell>
        <mxCell id="Qwqy4g0Rz2QXGqjSDHq8-71" value="o1" style="shape=partialRectangle;html=1;whiteSpace=wrap;connectable=0;strokeColor=inherit;overflow=hidden;fillColor=none;top=0;left=0;bottom=0;right=0;pointerEvents=1;" vertex="1" parent="Qwqy4g0Rz2QXGqjSDHq8-40">
          <mxGeometry x="180" width="60" height="40" as="geometry">
            <mxRectangle width="60" height="40" as="alternateBounds" />
          </mxGeometry>
        </mxCell>
        <mxCell id="Qwqy4g0Rz2QXGqjSDHq8-44" value="" style="shape=tableRow;horizontal=0;startSize=0;swimlaneHead=0;swimlaneBody=0;strokeColor=inherit;top=0;left=0;bottom=0;right=0;collapsible=0;dropTarget=0;fillColor=none;points=[[0,0.5],[1,0.5]];portConstraint=eastwest;" vertex="1" parent="Qwqy4g0Rz2QXGqjSDHq8-35">
          <mxGeometry y="80" width="240" height="40" as="geometry" />
        </mxCell>
        <mxCell id="Qwqy4g0Rz2QXGqjSDHq8-45" value="q2" style="shape=partialRectangle;html=1;whiteSpace=wrap;connectable=0;strokeColor=inherit;overflow=hidden;fillColor=none;top=0;left=0;bottom=0;right=0;pointerEvents=1;" vertex="1" parent="Qwqy4g0Rz2QXGqjSDHq8-44">
          <mxGeometry width="60" height="40" as="geometry">
            <mxRectangle width="60" height="40" as="alternateBounds" />
          </mxGeometry>
        </mxCell>
        <mxCell id="Qwqy4g0Rz2QXGqjSDHq8-46" value="q1" style="shape=partialRectangle;html=1;whiteSpace=wrap;connectable=0;strokeColor=inherit;overflow=hidden;fillColor=none;top=0;left=0;bottom=0;right=0;pointerEvents=1;" vertex="1" parent="Qwqy4g0Rz2QXGqjSDHq8-44">
          <mxGeometry x="60" width="60" height="40" as="geometry">
            <mxRectangle width="60" height="40" as="alternateBounds" />
          </mxGeometry>
        </mxCell>
        <mxCell id="Qwqy4g0Rz2QXGqjSDHq8-47" value="q2" style="shape=partialRectangle;html=1;whiteSpace=wrap;connectable=0;strokeColor=inherit;overflow=hidden;fillColor=none;top=0;left=0;bottom=0;right=0;pointerEvents=1;" vertex="1" parent="Qwqy4g0Rz2QXGqjSDHq8-44">
          <mxGeometry x="120" width="60" height="40" as="geometry">
            <mxRectangle width="60" height="40" as="alternateBounds" />
          </mxGeometry>
        </mxCell>
        <mxCell id="Qwqy4g0Rz2QXGqjSDHq8-72" value="o2" style="shape=partialRectangle;html=1;whiteSpace=wrap;connectable=0;strokeColor=inherit;overflow=hidden;fillColor=none;top=0;left=0;bottom=0;right=0;pointerEvents=1;" vertex="1" parent="Qwqy4g0Rz2QXGqjSDHq8-44">
          <mxGeometry x="180" width="60" height="40" as="geometry">
            <mxRectangle width="60" height="40" as="alternateBounds" />
          </mxGeometry>
        </mxCell>
        <mxCell id="Qwqy4g0Rz2QXGqjSDHq8-73" value="" style="shape=table;startSize=0;container=1;collapsible=0;childLayout=tableLayout;" vertex="1" parent="1">
          <mxGeometry x="30" y="330" width="240" height="120" as="geometry" />
        </mxCell>
        <mxCell id="Qwqy4g0Rz2QXGqjSDHq8-74" value="" style="shape=tableRow;horizontal=0;startSize=0;swimlaneHead=0;swimlaneBody=0;strokeColor=inherit;top=0;left=0;bottom=0;right=0;collapsible=0;dropTarget=0;fillColor=none;points=[[0,0.5],[1,0.5]];portConstraint=eastwest;" vertex="1" parent="Qwqy4g0Rz2QXGqjSDHq8-73">
          <mxGeometry width="240" height="40" as="geometry" />
        </mxCell>
        <mxCell id="Qwqy4g0Rz2QXGqjSDHq8-75" value="" style="shape=partialRectangle;html=1;whiteSpace=wrap;connectable=0;strokeColor=inherit;overflow=hidden;fillColor=none;top=0;left=0;bottom=0;right=0;pointerEvents=1;" vertex="1" parent="Qwqy4g0Rz2QXGqjSDHq8-74">
          <mxGeometry width="60" height="40" as="geometry">
            <mxRectangle width="60" height="40" as="alternateBounds" />
          </mxGeometry>
        </mxCell>
        <mxCell id="Qwqy4g0Rz2QXGqjSDHq8-76" value="a" style="shape=partialRectangle;html=1;whiteSpace=wrap;connectable=0;strokeColor=inherit;overflow=hidden;fillColor=none;top=0;left=0;bottom=0;right=0;pointerEvents=1;" vertex="1" parent="Qwqy4g0Rz2QXGqjSDHq8-74">
          <mxGeometry x="60" width="60" height="40" as="geometry">
            <mxRectangle width="60" height="40" as="alternateBounds" />
          </mxGeometry>
        </mxCell>
        <mxCell id="Qwqy4g0Rz2QXGqjSDHq8-77" value="b" style="shape=partialRectangle;html=1;whiteSpace=wrap;connectable=0;strokeColor=inherit;overflow=hidden;fillColor=none;top=0;left=0;bottom=0;right=0;pointerEvents=1;" vertex="1" parent="Qwqy4g0Rz2QXGqjSDHq8-74">
          <mxGeometry x="120" width="60" height="40" as="geometry">
            <mxRectangle width="60" height="40" as="alternateBounds" />
          </mxGeometry>
        </mxCell>
        <mxCell id="Qwqy4g0Rz2QXGqjSDHq8-78" value="output" style="shape=partialRectangle;html=1;whiteSpace=wrap;connectable=0;strokeColor=inherit;overflow=hidden;fillColor=none;top=0;left=0;bottom=0;right=0;pointerEvents=1;" vertex="1" parent="Qwqy4g0Rz2QXGqjSDHq8-74">
          <mxGeometry x="180" width="60" height="40" as="geometry">
            <mxRectangle width="60" height="40" as="alternateBounds" />
          </mxGeometry>
        </mxCell>
        <mxCell id="Qwqy4g0Rz2QXGqjSDHq8-79" value="" style="shape=tableRow;horizontal=0;startSize=0;swimlaneHead=0;swimlaneBody=0;strokeColor=inherit;top=0;left=0;bottom=0;right=0;collapsible=0;dropTarget=0;fillColor=none;points=[[0,0.5],[1,0.5]];portConstraint=eastwest;" vertex="1" parent="Qwqy4g0Rz2QXGqjSDHq8-73">
          <mxGeometry y="40" width="240" height="40" as="geometry" />
        </mxCell>
        <mxCell id="Qwqy4g0Rz2QXGqjSDHq8-80" value="q1" style="shape=partialRectangle;html=1;whiteSpace=wrap;connectable=0;strokeColor=inherit;overflow=hidden;fillColor=none;top=0;left=0;bottom=0;right=0;pointerEvents=1;" vertex="1" parent="Qwqy4g0Rz2QXGqjSDHq8-79">
          <mxGeometry width="60" height="40" as="geometry">
            <mxRectangle width="60" height="40" as="alternateBounds" />
          </mxGeometry>
        </mxCell>
        <mxCell id="Qwqy4g0Rz2QXGqjSDHq8-81" value="q1" style="shape=partialRectangle;html=1;whiteSpace=wrap;connectable=0;strokeColor=inherit;overflow=hidden;fillColor=none;top=0;left=0;bottom=0;right=0;pointerEvents=1;" vertex="1" parent="Qwqy4g0Rz2QXGqjSDHq8-79">
          <mxGeometry x="60" width="60" height="40" as="geometry">
            <mxRectangle width="60" height="40" as="alternateBounds" />
          </mxGeometry>
        </mxCell>
        <mxCell id="Qwqy4g0Rz2QXGqjSDHq8-82" value="q2" style="shape=partialRectangle;html=1;whiteSpace=wrap;connectable=0;strokeColor=inherit;overflow=hidden;fillColor=none;top=0;left=0;bottom=0;right=0;pointerEvents=1;" vertex="1" parent="Qwqy4g0Rz2QXGqjSDHq8-79">
          <mxGeometry x="120" width="60" height="40" as="geometry">
            <mxRectangle width="60" height="40" as="alternateBounds" />
          </mxGeometry>
        </mxCell>
        <mxCell id="Qwqy4g0Rz2QXGqjSDHq8-83" value="o1" style="shape=partialRectangle;html=1;whiteSpace=wrap;connectable=0;strokeColor=inherit;overflow=hidden;fillColor=none;top=0;left=0;bottom=0;right=0;pointerEvents=1;" vertex="1" parent="Qwqy4g0Rz2QXGqjSDHq8-79">
          <mxGeometry x="180" width="60" height="40" as="geometry">
            <mxRectangle width="60" height="40" as="alternateBounds" />
          </mxGeometry>
        </mxCell>
        <mxCell id="Qwqy4g0Rz2QXGqjSDHq8-84" value="" style="shape=tableRow;horizontal=0;startSize=0;swimlaneHead=0;swimlaneBody=0;strokeColor=inherit;top=0;left=0;bottom=0;right=0;collapsible=0;dropTarget=0;fillColor=none;points=[[0,0.5],[1,0.5]];portConstraint=eastwest;" vertex="1" parent="Qwqy4g0Rz2QXGqjSDHq8-73">
          <mxGeometry y="80" width="240" height="40" as="geometry" />
        </mxCell>
        <mxCell id="Qwqy4g0Rz2QXGqjSDHq8-85" value="q2" style="shape=partialRectangle;html=1;whiteSpace=wrap;connectable=0;strokeColor=inherit;overflow=hidden;fillColor=none;top=0;left=0;bottom=0;right=0;pointerEvents=1;" vertex="1" parent="Qwqy4g0Rz2QXGqjSDHq8-84">
          <mxGeometry width="60" height="40" as="geometry">
            <mxRectangle width="60" height="40" as="alternateBounds" />
          </mxGeometry>
        </mxCell>
        <mxCell id="Qwqy4g0Rz2QXGqjSDHq8-86" value="q1" style="shape=partialRectangle;html=1;whiteSpace=wrap;connectable=0;strokeColor=inherit;overflow=hidden;fillColor=none;top=0;left=0;bottom=0;right=0;pointerEvents=1;" vertex="1" parent="Qwqy4g0Rz2QXGqjSDHq8-84">
          <mxGeometry x="60" width="60" height="40" as="geometry">
            <mxRectangle width="60" height="40" as="alternateBounds" />
          </mxGeometry>
        </mxCell>
        <mxCell id="Qwqy4g0Rz2QXGqjSDHq8-87" value="q2" style="shape=partialRectangle;html=1;whiteSpace=wrap;connectable=0;strokeColor=inherit;overflow=hidden;fillColor=none;top=0;left=0;bottom=0;right=0;pointerEvents=1;" vertex="1" parent="Qwqy4g0Rz2QXGqjSDHq8-84">
          <mxGeometry x="120" width="60" height="40" as="geometry">
            <mxRectangle width="60" height="40" as="alternateBounds" />
          </mxGeometry>
        </mxCell>
        <mxCell id="Qwqy4g0Rz2QXGqjSDHq8-88" value="o2" style="shape=partialRectangle;html=1;whiteSpace=wrap;connectable=0;strokeColor=inherit;overflow=hidden;fillColor=none;top=0;left=0;bottom=0;right=0;pointerEvents=1;" vertex="1" parent="Qwqy4g0Rz2QXGqjSDHq8-84">
          <mxGeometry x="180" width="60" height="40" as="geometry">
            <mxRectangle width="60" height="40" as="alternateBounds" />
          </mxGeometry>
        </mxCell>
        <mxCell id="Qwqy4g0Rz2QXGqjSDHq8-89" value="" style="endArrow=classic;html=1;rounded=0;" edge="1" parent="1" target="Qwqy4g0Rz2QXGqjSDHq8-79">
          <mxGeometry width="50" height="50" relative="1" as="geometry">
            <mxPoint x="-50" y="390" as="sourcePoint" />
            <mxPoint x="10" y="380" as="targetPoint" />
          </mxGeometry>
        </mxCell>
        <mxCell id="Qwqy4g0Rz2QXGqjSDHq8-90" value="" style="endArrow=classic;html=1;rounded=0;entryX=0;entryY=0.5;entryDx=0;entryDy=0;" edge="1" parent="1" target="Qwqy4g0Rz2QXGqjSDHq8-40">
          <mxGeometry width="50" height="50" relative="1" as="geometry">
            <mxPoint x="-50" y="600" as="sourcePoint" />
            <mxPoint x="-30" y="540" as="targetPoint" />
          </mxGeometry>
        </mxCell>
        <mxCell id="Qwqy4g0Rz2QXGqjSDHq8-92" value="q1" style="strokeWidth=2;html=1;shape=mxgraph.flowchart.start_1;whiteSpace=wrap;" vertex="1" parent="1">
          <mxGeometry x="425" y="330" width="100" height="60" as="geometry" />
        </mxCell>
        <mxCell id="Qwqy4g0Rz2QXGqjSDHq8-93" value="" style="endArrow=classic;html=1;rounded=0;entryX=0;entryY=0.5;entryDx=0;entryDy=0;entryPerimeter=0;" edge="1" parent="1" target="Qwqy4g0Rz2QXGqjSDHq8-92">
          <mxGeometry width="50" height="50" relative="1" as="geometry">
            <mxPoint x="330" y="360" as="sourcePoint" />
            <mxPoint x="380" y="330" as="targetPoint" />
          </mxGeometry>
        </mxCell>
        <mxCell id="Qwqy4g0Rz2QXGqjSDHq8-95" value="q2" style="strokeWidth=2;html=1;shape=mxgraph.flowchart.start_1;whiteSpace=wrap;" vertex="1" parent="1">
          <mxGeometry x="640" y="330" width="100" height="60" as="geometry" />
        </mxCell>
        <mxCell id="Qwqy4g0Rz2QXGqjSDHq8-97" value="b" style="html=1;verticalAlign=bottom;endArrow=block;curved=0;rounded=0;entryX=0.083;entryY=0.311;entryDx=0;entryDy=0;entryPerimeter=0;" edge="1" parent="1" target="Qwqy4g0Rz2QXGqjSDHq8-95">
          <mxGeometry width="80" relative="1" as="geometry">
            <mxPoint x="520" y="349" as="sourcePoint" />
            <mxPoint x="610" y="359.58" as="targetPoint" />
          </mxGeometry>
        </mxCell>
        <mxCell id="Qwqy4g0Rz2QXGqjSDHq8-98" value="a" style="html=1;verticalAlign=bottom;endArrow=block;curved=0;rounded=0;entryX=0.975;entryY=0.756;entryDx=0;entryDy=0;entryPerimeter=0;exitX=0.067;exitY=0.714;exitDx=0;exitDy=0;exitPerimeter=0;" edge="1" parent="1" source="Qwqy4g0Rz2QXGqjSDHq8-95" target="Qwqy4g0Rz2QXGqjSDHq8-92">
          <mxGeometry width="80" relative="1" as="geometry">
            <mxPoint x="540" y="400" as="sourcePoint" />
            <mxPoint x="620" y="400" as="targetPoint" />
          </mxGeometry>
        </mxCell>
        <mxCell id="Qwqy4g0Rz2QXGqjSDHq8-99" value="a" style="html=1;verticalAlign=bottom;endArrow=block;curved=0;rounded=0;exitX=0.275;exitY=0.033;exitDx=0;exitDy=0;exitPerimeter=0;entryX=0.758;entryY=0.038;entryDx=0;entryDy=0;entryPerimeter=0;elbow=vertical;" edge="1" parent="1" source="Qwqy4g0Rz2QXGqjSDHq8-92" target="Qwqy4g0Rz2QXGqjSDHq8-92">
          <mxGeometry width="80" relative="1" as="geometry">
            <mxPoint x="455" y="340.3599999999999" as="sourcePoint" />
            <mxPoint x="495" y="340" as="targetPoint" />
            <Array as="points">
              <mxPoint x="450" y="290" />
              <mxPoint x="500" y="290" />
            </Array>
          </mxGeometry>
        </mxCell>
        <mxCell id="Qwqy4g0Rz2QXGqjSDHq8-100" value="b" style="html=1;verticalAlign=bottom;endArrow=block;curved=0;rounded=0;exitX=0.241;exitY=0.062;exitDx=0;exitDy=0;exitPerimeter=0;entryX=0.765;entryY=0.11;entryDx=0;entryDy=0;entryPerimeter=0;elbow=vertical;" edge="1" parent="1" source="Qwqy4g0Rz2QXGqjSDHq8-95" target="Qwqy4g0Rz2QXGqjSDHq8-95">
          <mxGeometry width="80" relative="1" as="geometry">
            <mxPoint x="667.5" y="330" as="sourcePoint" />
            <mxPoint x="715.5" y="330" as="targetPoint" />
            <Array as="points">
              <mxPoint x="664.5" y="288" />
              <mxPoint x="714.5" y="288" />
            </Array>
          </mxGeometry>
        </mxCell>
        <mxCell id="Qwqy4g0Rz2QXGqjSDHq8-101" value="O1" style="text;html=1;align=center;verticalAlign=middle;resizable=0;points=[];autosize=1;strokeColor=none;fillColor=none;fontColor=light-dark(#c41b1b, #ededed);fontStyle=1" vertex="1" parent="1">
          <mxGeometry x="455" y="240" width="40" height="30" as="geometry" />
        </mxCell>
        <mxCell id="Qwqy4g0Rz2QXGqjSDHq8-102" value="O2" style="text;html=1;align=center;verticalAlign=middle;resizable=0;points=[];autosize=1;strokeColor=none;fillColor=none;fontColor=light-dark(#c41b1b, #ededed);fontStyle=1" vertex="1" parent="1">
          <mxGeometry x="673" y="240" width="40" height="30" as="geometry" />
        </mxCell>
        <mxCell id="Qwqy4g0Rz2QXGqjSDHq8-103" value="q1" style="strokeWidth=2;html=1;shape=mxgraph.flowchart.start_1;whiteSpace=wrap;" vertex="1" parent="1">
          <mxGeometry x="435" y="580" width="100" height="60" as="geometry" />
        </mxCell>
        <mxCell id="Qwqy4g0Rz2QXGqjSDHq8-104" value="" style="endArrow=classic;html=1;rounded=0;entryX=0;entryY=0.5;entryDx=0;entryDy=0;entryPerimeter=0;" edge="1" parent="1" target="Qwqy4g0Rz2QXGqjSDHq8-103">
          <mxGeometry width="50" height="50" relative="1" as="geometry">
            <mxPoint x="340" y="610" as="sourcePoint" />
            <mxPoint x="390" y="580" as="targetPoint" />
          </mxGeometry>
        </mxCell>
        <mxCell id="Qwqy4g0Rz2QXGqjSDHq8-105" value="q2" style="strokeWidth=2;html=1;shape=mxgraph.flowchart.start_1;whiteSpace=wrap;" vertex="1" parent="1">
          <mxGeometry x="650" y="580" width="100" height="60" as="geometry" />
        </mxCell>
        <mxCell id="Qwqy4g0Rz2QXGqjSDHq8-106" value="x/O1" style="html=1;verticalAlign=bottom;endArrow=block;curved=0;rounded=0;entryX=0.083;entryY=0.311;entryDx=0;entryDy=0;entryPerimeter=0;" edge="1" parent="1" target="Qwqy4g0Rz2QXGqjSDHq8-105">
          <mxGeometry width="80" relative="1" as="geometry">
            <mxPoint x="530" y="599" as="sourcePoint" />
            <mxPoint x="620" y="609.5799999999999" as="targetPoint" />
          </mxGeometry>
        </mxCell>
        <mxCell id="Qwqy4g0Rz2QXGqjSDHq8-107" value="x/O2" style="html=1;verticalAlign=bottom;endArrow=block;curved=0;rounded=0;entryX=0.975;entryY=0.756;entryDx=0;entryDy=0;entryPerimeter=0;exitX=0.067;exitY=0.714;exitDx=0;exitDy=0;exitPerimeter=0;" edge="1" parent="1" source="Qwqy4g0Rz2QXGqjSDHq8-105" target="Qwqy4g0Rz2QXGqjSDHq8-103">
          <mxGeometry width="80" relative="1" as="geometry">
            <mxPoint x="550" y="650" as="sourcePoint" />
            <mxPoint x="630" y="650" as="targetPoint" />
          </mxGeometry>
        </mxCell>
        <mxCell id="Qwqy4g0Rz2QXGqjSDHq8-108" value="y/O1" style="html=1;verticalAlign=bottom;endArrow=block;curved=0;rounded=0;exitX=0.275;exitY=0.033;exitDx=0;exitDy=0;exitPerimeter=0;entryX=0.758;entryY=0.038;entryDx=0;entryDy=0;entryPerimeter=0;elbow=vertical;" edge="1" parent="1" source="Qwqy4g0Rz2QXGqjSDHq8-103" target="Qwqy4g0Rz2QXGqjSDHq8-103">
          <mxGeometry width="80" relative="1" as="geometry">
            <mxPoint x="465" y="590.3599999999999" as="sourcePoint" />
            <mxPoint x="505" y="590" as="targetPoint" />
            <Array as="points">
              <mxPoint x="460" y="540" />
              <mxPoint x="510" y="540" />
            </Array>
          </mxGeometry>
        </mxCell>
        <mxCell id="Qwqy4g0Rz2QXGqjSDHq8-109" value="y/O2" style="html=1;verticalAlign=bottom;endArrow=block;curved=0;rounded=0;exitX=0.241;exitY=0.062;exitDx=0;exitDy=0;exitPerimeter=0;entryX=0.765;entryY=0.11;entryDx=0;entryDy=0;entryPerimeter=0;elbow=vertical;" edge="1" parent="1" source="Qwqy4g0Rz2QXGqjSDHq8-105" target="Qwqy4g0Rz2QXGqjSDHq8-105">
          <mxGeometry width="80" relative="1" as="geometry">
            <mxPoint x="677.5" y="580" as="sourcePoint" />
            <mxPoint x="725.5" y="580" as="targetPoint" />
            <Array as="points">
              <mxPoint x="674.5" y="538" />
              <mxPoint x="724.5" y="538" />
            </Array>
          </mxGeometry>
        </mxCell>
      </root>
    </mxGraphModel>
  </diagram>
</mxfile>
